fontCallback.success({"glyphs":{"S":{"x_min":46,"x_max":600.71875,"ha":660,"o":"m 520 876 b 310 913 445 887 437 913 b 56 673 193 913 56 840 b 330 386 56 511 232 425 b 454 201 414 352 454 281 b 299 43 454 98 403 43 b 100 247 208 43 127 120 l 46 243 b 71 0 59 137 69 70 b 134 6 95 0 107 6 b 328 -13 167 6 194 -13 b 600 255 483 -13 600 70 b 351 538 600 423 465 497 b 186 718 294 559 186 629 b 309 859 186 795 219 859 b 494 658 424 859 469 750 l 549 665 b 520 876 536 733 525 802 "},"¦":{"x_min":108.890625,"x_max":190.5625,"ha":306,"o":"m 190 223 l 108 223 l 108 -279 l 190 -279 l 190 223 m 190 936 l 108 936 l 108 433 l 190 433 l 190 936 "},"/":{"x_min":3,"x_max":411,"ha":439,"o":"m 411 947 l 325 947 l 3 -29 l 88 -29 l 411 947 "},"₢":{"x_min":7.015625,"x_max":596.375,"ha":608,"o":"m 328 -22 b 555 151 442 -22 526 57 l 469 175 b 409 73 452 125 431 93 l 409 258 b 448 373 409 291 434 354 b 450 368 448 372 449 369 b 525 335 458 346 487 335 b 596 395 569 335 596 368 b 502 454 596 427 559 454 b 409 408 461 454 433 433 l 411 454 l 362 454 b 318 443 341 454 332 449 b 203 401 283 424 268 418 l 211 356 b 260 319 235 361 260 358 l 260 79 b 182 406 208 126 182 237 b 341 755 182 592 239 755 b 467 583 390 755 457 698 l 560 588 l 543 814 l 450 808 l 450 794 l 450 789 b 344 813 427 799 394 813 b 7 388 154 813 7 645 b 328 -22 7 144 130 -22 "},"y":{"x_min":13.609375,"x_max":705.0625,"ha":740,"o":"m 588 473 b 690 557 611 531 650 557 b 705 570 698 557 705 563 l 705 602 l 702 605 b 615 602 702 605 649 602 b 462 605 555 602 462 605 l 457 600 l 457 567 b 468 557 457 563 461 557 b 522 492 510 557 539 542 b 397 145 498 411 443 260 l 270 495 b 321 557 255 538 266 557 b 332 568 323 557 332 559 l 332 602 l 326 605 b 161 602 326 605 225 602 b 17 605 104 602 17 605 l 13 602 l 13 567 b 27 557 13 560 19 557 b 125 466 81 557 96 534 l 317 -17 l 292 -85 b 208 -232 253 -192 217 -232 b 181 -208 197 -232 190 -222 b 125 -176 172 -196 147 -176 b 44 -247 85 -176 44 -200 b 148 -324 44 -306 118 -324 b 362 -99 257 -324 315 -215 l 588 473 "},"Á":{"x_min":2.71875,"x_max":948.703125,"ha":971,"o":"m 201 110 l 279 315 b 321 335 287 333 294 335 l 571 335 l 656 101 b 658 82 658 97 658 89 b 624 46 658 61 647 46 l 588 46 b 552 32 563 46 552 43 l 552 5 l 563 -1 b 759 1 563 -1 710 1 b 941 -1 811 1 941 -1 l 948 4 l 948 32 b 928 46 948 43 948 46 l 890 46 b 818 126 856 46 837 75 l 543 871 b 481 914 532 900 510 914 b 424 871 466 914 438 904 l 121 126 b 29 46 98 69 57 46 b 2 32 13 46 2 46 l 2 3 l 13 -1 b 129 1 13 -1 95 1 b 287 -1 161 1 287 -1 l 294 4 l 294 32 b 265 46 294 43 287 46 b 201 110 185 46 186 69 m 344 400 b 318 417 319 400 318 404 l 435 714 l 548 400 l 344 400 m 567 1139 l 398 1019 b 378 990 381 1007 378 1000 b 397 969 378 976 385 969 b 455 986 409 969 427 974 l 651 1067 l 567 1139 "},"g":{"x_min":46.59375,"x_max":670.921875,"ha":706,"o":"m 608 532 b 668 587 646 532 668 554 b 594 648 668 614 646 648 b 457 590 557 648 496 626 b 329 616 432 604 390 616 b 79 405 198 616 79 534 b 162 230 79 337 111 266 b 91 103 121 191 91 146 b 156 1 91 58 118 25 b 46 -160 86 -46 46 -106 b 276 -330 46 -284 164 -330 b 670 -76 465 -330 670 -228 b 394 78 670 -23 616 78 b 266 68 343 78 279 68 b 205 140 242 68 205 85 b 213 208 205 162 207 192 b 328 187 242 194 286 187 b 571 398 455 187 571 262 b 498 564 571 476 544 525 b 537 589 508 577 523 589 b 557 572 549 589 553 580 b 608 532 563 554 574 532 m 249 -20 b 306 -19 264 -20 286 -20 b 348 -16 324 -17 336 -16 b 547 -112 409 -16 547 -20 b 314 -271 547 -216 416 -271 b 174 -133 276 -271 174 -231 b 204 -14 174 -85 175 -45 b 249 -20 218 -20 232 -20 m 424 394 b 334 239 424 261 370 239 b 223 418 250 239 223 347 b 317 568 223 520 264 568 b 424 394 381 568 424 504 "},"²":{"x_min":50.75,"x_max":406,"ha":461,"o":"m 117 795 b 158 838 140 795 158 812 b 154 862 158 841 155 855 b 152 877 152 866 152 869 b 220 912 152 892 174 912 b 283 834 235 912 283 895 b 212 710 283 784 254 748 b 50 499 87 599 50 567 l 385 499 l 406 609 l 362 619 b 342 553 354 584 350 574 l 170 553 b 308 703 174 589 197 617 b 389 837 355 745 389 788 b 227 953 389 927 308 953 b 64 844 98 953 64 881 b 117 795 64 821 84 795 "},"ë":{"x_min":47.25,"x_max":587.609375,"ha":640,"o":"m 541 156 b 388 69 490 94 440 69 b 203 309 282 69 203 173 l 203 345 l 534 345 b 587 375 567 345 587 355 b 339 622 587 493 539 622 b 47 280 196 622 47 493 b 335 -8 47 127 128 -8 b 575 127 429 -8 525 23 l 541 156 m 210 401 b 338 563 229 543 309 563 b 431 416 375 563 431 527 b 428 401 431 408 431 404 l 210 401 m 133 793 b 206 719 133 752 167 719 b 280 793 247 719 280 752 b 206 868 280 834 247 868 b 133 793 167 868 133 834 m 379 793 b 452 719 379 752 412 719 b 526 793 492 719 526 752 b 452 868 526 834 492 868 b 379 793 412 868 379 834 "},"Î":{"x_min":29.9375,"x_max":405.609375,"ha":443,"o":"m 300 105 l 300 789 b 375 850 300 828 319 850 l 394 850 b 405 861 401 850 405 854 l 405 895 l 402 898 b 217 895 402 898 266 895 b 32 898 164 895 32 898 l 29 895 l 29 861 b 40 850 29 854 35 850 l 59 850 b 134 789 114 850 134 834 l 134 105 b 59 44 134 60 114 44 l 40 44 b 29 31 35 44 29 40 l 29 0 l 32 -3 b 217 0 32 -3 164 0 b 402 -3 266 0 402 -3 l 405 0 l 405 31 b 394 44 405 40 401 44 l 375 44 b 300 105 319 44 300 66 m 227 1117 l 168 1117 b 34 987 126 1070 84 1026 l 53 958 b 198 1044 104 981 148 1006 b 343 958 243 1009 289 983 l 364 987 b 227 1117 315 1024 268 1067 "},"e":{"x_min":46.28125,"x_max":586.640625,"ha":640,"o":"m 540 151 b 387 63 490 88 439 63 b 202 304 281 63 202 168 l 202 340 l 533 340 b 586 369 566 340 586 350 b 338 616 586 487 539 616 b 46 275 196 616 46 487 b 334 -13 46 122 127 -13 b 574 122 428 -13 524 18 l 540 151 m 209 395 b 337 558 228 537 308 558 b 430 411 374 558 430 522 b 427 395 430 402 430 398 l 209 395 "},"Ã":{"x_min":2.46875,"x_max":949.078125,"ha":971,"o":"m 201 110 l 278 316 b 321 335 286 334 293 335 l 571 335 l 656 101 b 659 82 659 97 659 89 b 625 46 659 61 648 46 l 588 46 b 552 32 563 46 552 43 l 552 5 l 563 -1 b 759 1 563 -1 710 1 b 942 -1 811 1 942 -1 l 949 4 l 949 32 b 928 46 949 43 949 46 l 890 46 b 818 126 856 46 837 75 l 543 872 b 481 915 532 901 510 915 b 424 872 466 915 438 905 l 120 126 b 29 46 97 69 56 46 b 2 32 13 46 2 46 l 2 3 l 13 -1 b 129 1 13 -1 95 1 b 286 -1 161 1 286 -1 l 293 4 l 293 32 b 265 46 293 43 286 46 b 201 110 184 46 186 69 m 344 400 b 318 417 319 400 318 404 l 435 715 l 548 400 l 344 400 m 595 1039 b 520 1074 567 1039 544 1054 b 419 1118 492 1096 461 1118 b 306 971 357 1118 325 1065 l 341 960 b 408 1033 356 1012 371 1033 b 487 998 432 1033 460 1015 b 575 956 514 977 544 956 b 700 1105 641 956 682 1012 l 661 1119 b 595 1039 642 1051 625 1039 "},"J":{"x_min":-112.96875,"x_max":469.578125,"ha":528,"o":"m 95 -169 b 50 -148 76 -169 63 -166 b -43 -98 32 -123 12 -98 b -112 -165 -69 -98 -112 -125 b 36 -252 -112 -231 -36 -252 b 225 -191 70 -252 164 -244 b 362 143 304 -127 362 -34 l 362 790 b 435 850 362 829 379 847 l 458 851 b 469 862 465 851 469 855 l 469 895 l 466 898 b 250 895 402 897 304 895 b 62 898 197 895 126 897 l 59 895 l 59 862 b 72 851 59 855 65 851 l 99 850 b 196 769 168 845 196 837 l 196 112 b 95 -169 196 -137 140 -169 "},"»":{"x_min":42.1875,"x_max":616.578125,"ha":778,"o":"m 42 -37 b 375 275 181 115 277 205 l 375 320 b 42 634 284 370 187 461 l 42 505 b 238 297 103 411 167 352 b 42 87 163 234 102 177 l 42 -37 m 283 -37 b 616 275 421 115 518 205 l 616 320 b 283 634 525 370 428 461 l 283 505 b 477 297 343 411 408 352 b 283 87 404 234 341 177 l 283 -37 "},"₨":{"x_min":-3.484375,"x_max":1036.890625,"ha":1090,"o":"m 241 762 l 238 762 b 241 762 238 762 240 762 m 617 184 l 623 40 b 540 127 587 45 559 86 l 423 380 b 575 598 481 408 575 480 b 510 755 575 656 553 706 l 510 754 b 291 819 455 813 369 819 b 12 798 158 819 48 808 l 12 775 b 53 761 12 766 25 761 l 97 765 b 104 715 102 763 104 745 l 104 94 b 67 44 104 63 94 44 l 34 44 b -3 29 10 44 -3 38 l -3 11 l 8 -1 b 184 1 8 -1 140 1 b 355 -1 231 1 355 -1 l 367 11 l 367 29 b 328 44 367 38 350 44 l 297 44 b 260 94 271 44 260 59 l 260 350 b 291 338 284 347 289 343 l 404 101 b 571 -8 433 41 490 -8 b 625 0 587 -8 608 -4 l 625 -8 b 684 2 665 0 680 2 b 702 0 688 2 692 2 b 820 -12 732 -8 772 -12 b 1036 147 898 -12 1036 19 b 838 334 1036 243 945 286 b 760 425 783 358 760 370 b 831 512 760 491 797 512 b 938 365 849 512 903 497 l 1024 366 l 1009 516 b 830 559 979 533 902 559 b 625 405 717 559 625 494 b 783 247 625 320 689 288 b 895 118 866 209 895 173 b 816 31 895 59 849 31 b 740 66 785 31 752 55 b 704 187 717 91 707 155 l 617 184 m 409 595 b 378 469 409 540 397 500 b 263 408 355 429 326 408 l 260 408 l 260 768 b 303 773 274 770 283 773 b 409 595 354 773 409 738 "},"©":{"x_min":46.28125,"x_max":815.3125,"ha":879,"o":"m 431 763 b 759 425 612 763 759 611 b 431 86 759 238 612 86 b 102 425 247 86 102 240 b 431 763 102 609 249 763 m 431 31 b 815 425 643 31 815 208 b 431 816 815 641 643 816 b 46 425 219 816 46 641 b 431 31 46 209 217 31 m 594 301 l 564 322 b 442 252 549 300 511 252 b 313 423 349 252 313 330 b 435 601 313 569 385 601 b 553 500 534 601 543 561 l 596 505 l 581 613 b 434 633 534 613 529 633 b 221 426 306 633 221 527 b 438 212 221 315 307 212 b 594 301 513 212 567 258 "},"ò":{"x_min":45.9375,"x_max":659.796875,"ha":721,"o":"m 45 287 b 352 -13 45 144 152 -13 b 659 300 563 -13 659 159 b 353 616 659 445 575 616 b 45 287 156 616 45 477 m 339 559 b 495 255 432 559 495 454 b 373 45 495 79 422 45 b 212 318 262 45 212 215 b 339 559 212 436 252 559 m 331 936 b 304 938 326 937 311 938 b 205 894 255 938 216 906 l 202 879 l 367 733 b 414 705 390 712 403 705 b 437 727 427 705 437 715 b 425 763 437 738 431 754 l 331 936 "},"^":{"x_min":152,"x_max":554,"ha":719,"o":"m 352 790 l 476 480 l 554 480 l 382 903 l 325 903 l 152 480 l 229 480 l 352 790 "},"«":{"x_min":85.75,"x_max":660.140625,"ha":778,"o":"m 660 634 b 326 322 521 481 424 391 l 326 276 b 660 -37 417 226 514 136 l 660 91 b 464 300 598 186 534 244 b 660 509 539 362 600 419 l 660 634 m 419 634 b 85 322 280 481 183 391 l 85 276 b 419 -37 176 226 273 136 l 419 91 b 224 300 359 186 294 244 b 419 509 298 362 360 419 l 419 634 "},"D":{"x_min":29.9375,"x_max":926.921875,"ha":997,"o":"m 32 0 l 460 0 b 926 429 662 0 926 87 b 435 897 926 686 711 897 l 32 897 l 29 894 l 29 862 b 40 851 29 855 35 851 l 59 851 b 134 790 114 851 134 834 l 134 106 b 59 45 134 62 114 45 l 40 45 b 29 33 35 45 29 41 l 29 2 l 32 0 m 300 104 l 300 793 b 385 841 300 837 336 841 b 747 394 653 841 747 604 b 419 55 747 122 593 55 b 300 104 313 55 300 63 "},"ÿ":{"x_min":13.78125,"x_max":704.875,"ha":740,"o":"m 587 473 b 689 557 611 531 650 557 b 704 570 698 557 704 563 l 704 602 l 702 605 b 615 602 702 605 649 602 b 462 605 555 602 462 605 l 457 600 l 457 567 b 468 557 457 563 461 557 b 522 492 510 557 538 542 b 397 145 498 411 443 260 l 271 495 b 321 557 256 538 266 557 b 332 568 324 557 332 559 l 332 602 l 326 605 b 162 602 326 605 226 602 b 17 605 104 602 17 605 l 13 602 l 13 567 b 27 557 13 560 19 557 b 125 466 81 557 96 534 l 317 -17 l 292 -85 b 208 -232 253 -192 217 -232 b 181 -208 197 -232 190 -222 b 125 -176 173 -196 147 -176 b 45 -247 85 -176 45 -200 b 148 -324 45 -306 118 -324 b 362 -99 257 -324 315 -215 l 587 473 m 188 792 b 261 718 188 752 222 718 b 334 792 302 718 334 752 b 261 867 334 834 302 867 b 188 792 222 867 188 834 m 434 792 b 507 718 434 752 466 718 b 581 792 547 718 581 752 b 507 867 581 834 547 867 b 434 792 466 867 434 834 "},"í":{"x_min":47.640625,"x_max":375.671875,"ha":397,"o":"m 287 445 b 291 616 287 515 291 616 b 281 620 291 619 284 620 b 49 578 238 606 142 591 l 51 531 l 107 526 b 137 445 126 523 137 515 l 137 106 b 73 47 137 67 115 53 l 57 44 b 47 31 51 42 47 40 l 47 0 l 50 -3 b 209 0 50 -3 160 0 b 372 -3 262 0 372 -3 l 375 0 l 375 31 b 364 44 375 40 368 42 l 351 47 b 287 106 310 53 287 67 l 287 445 m 238 935 l 125 753 b 114 720 117 741 114 728 b 136 701 114 712 125 701 b 187 723 149 701 168 706 l 351 873 l 337 905 b 259 938 326 919 300 938 b 238 935 253 938 242 937 "},"w":{"x_min":10.890625,"x_max":1035.8125,"ha":1081,"o":"m 265 495 b 295 557 253 532 253 550 b 310 568 299 557 310 557 l 310 602 l 304 605 b 159 602 304 605 215 602 b 14 605 102 602 14 605 l 10 602 l 10 567 b 25 557 10 560 17 557 b 123 463 87 549 103 516 l 284 43 b 356 -17 299 5 315 -17 b 419 48 390 -17 405 14 l 519 303 l 619 43 b 690 -17 630 17 646 -17 b 752 45 722 -17 739 9 l 922 474 b 1020 557 940 521 962 549 b 1035 570 1029 557 1035 563 l 1035 602 l 1033 605 b 940 602 1033 605 975 602 b 788 605 880 602 788 605 l 782 600 l 782 567 b 793 557 782 563 786 559 l 798 556 b 854 492 861 539 869 536 l 728 136 l 601 495 b 630 555 586 535 588 549 l 653 557 b 665 568 657 557 665 559 l 665 602 l 660 605 b 494 602 660 605 558 602 b 355 605 439 602 355 605 l 351 602 l 351 567 b 364 557 351 560 357 557 b 447 492 405 552 427 541 l 490 384 l 393 138 l 265 495 "},"$":{"x_min":56,"x_max":546.640625,"ha":608,"o":"m 264 483 b 171 608 217 509 171 558 b 264 743 171 687 205 731 l 264 483 m 318 336 b 421 176 380 301 421 247 b 318 36 421 77 365 45 l 318 336 m 124 13 b 264 -16 148 13 190 -11 l 264 -112 l 318 -112 l 318 -16 b 546 216 493 -5 546 108 b 318 462 546 355 399 436 l 318 743 b 432 604 384 734 406 693 l 440 579 l 499 584 b 471 783 488 652 475 720 b 318 793 437 777 383 790 l 318 870 l 264 870 l 264 791 b 57 602 172 781 57 720 b 264 358 57 451 175 391 l 264 36 b 115 205 175 47 136 122 l 56 201 b 77 -2 66 123 77 48 b 124 12 106 -2 102 12 l 124 13 "},"\\":{"x_min":15,"x_max":416.53125,"ha":426,"o":"m 103 969 l 15 969 l 328 -66 l 416 -66 l 103 969 "},"Ì":{"x_min":29.9375,"x_max":405.609375,"ha":443,"o":"m 300 105 l 300 789 b 375 850 300 828 319 850 l 394 850 b 405 861 401 850 405 854 l 405 895 l 402 898 b 217 895 402 898 266 895 b 32 898 164 895 32 898 l 29 895 l 29 861 b 40 850 29 854 35 850 l 59 850 b 134 789 114 850 134 834 l 134 105 b 59 44 134 60 114 44 l 40 44 b 29 31 35 44 29 40 l 29 0 l 32 -3 b 217 0 32 -3 164 0 b 402 -3 266 0 402 -3 l 405 0 l 405 31 b 394 44 405 40 401 44 l 375 44 b 300 105 319 44 300 66 m 134 1134 l 31 1071 l 240 984 b 299 967 270 971 288 967 b 319 988 313 967 319 974 b 299 1017 319 998 314 1006 l 134 1134 "},"µ":{"x_min":49.28125,"x_max":705.328125,"ha":735,"o":"m 442 66 l 445 66 b 578 -14 461 12 497 -14 b 705 52 653 -14 705 45 b 687 80 705 62 693 80 b 645 58 679 80 678 58 b 591 174 592 58 591 110 l 591 622 l 441 602 l 441 135 b 286 56 411 94 341 56 b 213 208 238 56 213 120 l 213 476 b 209 621 213 520 209 621 l 49 602 b 64 448 49 602 64 483 l 64 190 b 83 63 64 154 79 99 b 87 -5 84 35 87 13 b 73 -128 87 -55 79 -91 b 64 -226 68 -164 64 -197 b 150 -322 64 -286 122 -322 b 222 -233 193 -322 222 -293 b 205 -133 222 -210 213 -169 b 199 -4 197 -93 201 -48 b 261 -16 218 -12 239 -16 b 442 66 336 -16 386 20 "},"Ç":{"x_min":46.28125,"x_max":858.859375,"ha":925,"o":"m 487 -117 b 544 -166 518 -117 544 -136 b 462 -222 544 -203 503 -222 b 383 -203 435 -222 420 -217 l 370 -234 b 470 -257 404 -249 427 -257 b 616 -159 553 -257 616 -218 b 519 -72 616 -106 574 -72 b 484 -77 507 -72 495 -74 l 509 -14 b 858 178 650 -13 766 54 l 818 212 b 503 46 713 91 613 46 b 223 463 314 46 223 266 b 506 857 223 738 374 857 b 781 607 680 857 739 738 l 833 618 b 803 852 819 694 808 772 b 506 913 733 852 687 913 b 46 437 254 913 46 711 b 462 -13 46 223 181 4 l 417 -117 l 426 -125 b 487 -117 447 -118 461 -117 "},"-":{"x_min":34.03125,"x_max":453.25,"ha":496,"o":"m 389 323 b 453 379 420 323 453 361 b 404 408 453 394 442 408 l 96 408 b 34 352 68 408 34 376 b 84 323 34 337 51 323 l 389 323 "},"Q":{"x_min":49.765625,"x_max":944.953125,"ha":1014,"o":"m 188 -212 l 241 -254 b 341 -172 269 -190 320 -172 b 731 -304 467 -172 553 -304 b 927 -190 816 -304 874 -267 l 904 -159 b 785 -210 874 -197 825 -210 b 405 -97 665 -210 555 -97 b 391 -98 399 -97 395 -98 b 542 -12 447 -55 503 -26 b 944 457 789 9 944 196 b 493 914 944 733 735 914 b 49 432 235 914 49 704 b 423 -9 49 183 209 21 b 188 -212 323 -62 233 -145 m 477 857 b 765 430 631 857 765 712 b 522 43 765 189 660 43 b 228 455 361 43 228 194 b 477 857 228 739 361 857 "},"M":{"x_min":32.671875,"x_max":1131.078125,"ha":1185,"o":"m 967 790 b 1042 851 963 828 986 851 l 1061 851 b 1072 862 1068 851 1072 855 l 1072 895 l 1069 897 l 858 897 l 600 219 l 321 897 l 91 897 l 88 895 l 88 862 b 100 851 88 855 93 851 l 119 851 b 181 790 172 851 182 835 l 142 105 b 57 44 140 60 111 44 l 43 44 b 32 31 38 44 32 40 l 32 0 l 35 -3 b 179 0 35 -3 126 0 b 326 -3 227 0 326 -3 l 329 0 l 329 31 b 318 44 329 40 325 44 l 299 44 b 228 105 243 44 225 60 l 257 623 l 509 9 b 549 -16 515 -9 537 -16 b 589 9 571 -16 582 -4 l 833 619 l 875 105 b 807 44 879 62 861 44 l 788 44 b 777 31 782 44 777 40 l 777 0 l 779 -3 b 945 0 779 -3 892 0 b 1128 -3 993 0 1128 -3 l 1131 0 l 1131 31 b 1120 44 1131 40 1127 44 l 1101 44 b 1026 105 1045 44 1030 66 l 967 790 "},"C":{"x_min":46.28125,"x_max":858.859375,"ha":925,"o":"m 504 -13 b 858 179 649 -13 766 54 l 818 212 b 503 47 713 91 613 47 b 223 463 314 47 223 266 b 506 857 223 738 374 857 b 781 607 680 857 739 738 l 833 618 b 803 852 819 694 808 772 b 506 913 733 852 687 913 b 46 437 254 913 46 711 b 504 -13 46 213 194 -13 "},"!":{"x_min":68.0625,"x_max":264.0625,"ha":339,"o":"m 88 62 b 164 -13 88 20 122 -13 b 240 62 206 -13 240 20 b 164 140 240 105 206 140 b 88 62 122 140 88 105 m 166 913 b 68 809 123 913 68 887 b 87 666 68 755 77 715 b 125 336 103 568 122 401 b 166 261 126 288 129 261 b 204 319 197 261 202 293 b 245 662 205 387 221 526 b 264 809 253 708 264 761 b 166 913 264 880 216 913 "},"ç":{"x_min":49.875,"x_max":559.984375,"ha":604,"o":"m 285 -108 b 342 -157 317 -108 342 -127 b 261 -213 342 -194 302 -213 b 181 -194 233 -213 218 -208 l 168 -225 b 269 -248 202 -240 225 -248 b 415 -150 352 -248 415 -209 b 318 -63 415 -97 373 -63 b 282 -68 306 -63 293 -65 l 304 -13 b 338 -13 315 -13 326 -13 b 553 120 435 -13 512 36 l 525 147 b 374 56 467 80 424 56 b 205 313 284 56 205 163 b 338 558 205 467 266 558 b 413 459 390 558 409 504 b 491 394 418 422 448 394 b 559 472 535 394 559 429 b 344 616 559 547 493 616 b 49 279 183 616 49 477 b 259 -7 49 123 119 19 l 216 -108 l 224 -116 b 285 -108 246 -109 259 -108 "},"È":{"x_min":31.96875,"x_max":737,"ha":781,"o":"m 36 0 l 700 0 b 737 234 709 75 723 161 l 678 248 b 531 63 655 145 606 63 l 323 63 b 304 104 311 63 304 72 l 304 448 l 458 448 b 505 350 492 448 497 406 b 527 336 505 344 513 336 l 556 336 l 564 348 b 554 477 561 372 554 427 b 564 606 554 529 561 584 l 556 620 l 527 620 b 505 605 513 620 505 611 b 458 506 497 550 492 506 l 304 506 l 304 793 b 323 833 304 822 311 833 l 500 833 b 644 659 591 833 625 730 l 699 672 b 670 897 685 743 675 816 l 36 897 l 31 894 l 31 862 b 42 851 31 855 37 851 l 61 851 b 136 790 116 851 136 834 l 136 106 b 61 45 136 62 116 45 l 42 45 b 31 33 37 45 31 41 l 31 2 l 36 0 m 332 1134 l 229 1072 l 438 984 b 497 968 468 972 486 968 b 517 988 511 968 517 975 b 497 1018 517 998 512 1006 l 332 1134 "},"{":{"x_min":53.125,"x_max":366.171875,"ha":425,"o":"m 279 783 b 296 902 279 843 285 883 b 366 962 314 936 337 955 l 366 988 b 187 936 265 986 213 968 b 142 773 157 898 142 844 l 142 513 b 53 347 142 444 129 369 l 53 340 b 142 170 126 322 142 255 l 142 -69 b 185 -245 142 -148 157 -208 b 366 -298 208 -277 261 -295 l 366 -273 b 298 -213 352 -270 325 -263 b 279 -90 285 -191 279 -150 l 279 136 b 190 344 279 247 276 302 b 279 534 261 377 279 419 l 279 783 "},"X":{"x_min":6.8125,"x_max":958.21875,"ha":983,"o":"m 32 860 b 47 851 32 853 38 851 b 175 762 70 851 121 838 l 371 477 b 377 403 397 437 400 431 l 178 144 b 21 44 136 90 102 44 b 6 34 13 44 6 41 l 6 0 l 8 -3 b 122 0 8 -3 115 0 b 300 -3 141 0 300 -3 l 304 0 l 304 33 b 296 44 304 38 302 44 b 249 106 265 44 215 48 b 417 358 298 188 357 278 b 469 341 436 384 441 384 l 635 101 b 590 44 668 51 672 44 b 582 34 586 44 582 40 l 582 0 l 586 -3 b 812 0 586 -3 804 0 b 956 -3 828 0 918 -1 l 958 0 l 958 33 b 948 44 958 38 955 44 b 804 141 888 44 842 87 l 596 433 b 573 531 549 497 548 501 l 769 766 b 918 851 808 813 849 851 b 931 860 931 851 931 856 l 931 895 l 928 897 b 794 895 903 897 801 895 b 631 897 779 895 661 897 l 628 895 l 628 860 b 638 851 628 853 634 851 b 688 794 669 851 715 845 b 528 572 651 727 582 640 b 490 574 510 551 507 549 l 344 794 b 394 851 317 837 325 851 b 401 860 398 851 401 853 l 401 895 b 396 897 400 895 396 897 b 176 895 353 897 183 895 b 39 897 161 895 74 897 l 32 895 l 32 860 "},"ô":{"x_min":45.953125,"x_max":659.75,"ha":721,"o":"m 45 287 b 352 -13 45 144 152 -13 b 659 300 563 -13 659 159 b 353 616 659 445 575 616 b 45 287 156 616 45 477 m 339 559 b 495 255 432 559 495 454 b 373 45 495 79 422 45 b 212 318 262 45 212 215 b 339 559 212 436 252 559 m 380 901 l 309 901 b 165 715 269 834 214 772 l 199 688 b 344 804 254 725 292 750 b 489 688 391 752 431 725 l 523 715 b 380 901 473 772 421 833 "},"¼":{"x_min":75.9375,"x_max":892.609375,"ha":917,"o":"m 187 532 b 129 473 187 493 169 483 l 118 471 b 107 460 111 468 107 466 l 107 437 l 109 435 b 235 437 109 435 187 437 b 365 435 288 437 365 435 l 368 437 l 368 460 b 357 471 368 466 363 468 l 345 473 b 286 532 304 482 286 493 l 286 800 b 289 879 286 839 289 879 b 274 887 289 885 284 887 b 252 879 266 887 258 882 b 75 796 186 836 142 822 l 89 760 b 157 778 119 771 141 778 b 187 715 179 778 187 761 l 187 532 m 817 218 b 801 232 817 230 808 232 b 733 203 790 232 744 215 b 725 179 730 198 725 187 l 725 78 l 597 78 l 767 330 l 717 344 l 503 36 l 519 19 l 725 19 l 725 -38 b 693 -71 725 -67 718 -71 l 673 -71 b 668 -77 669 -71 668 -74 l 662 -112 b 764 -110 662 -112 725 -110 b 876 -112 808 -110 876 -112 l 876 -77 b 870 -71 876 -74 874 -71 l 849 -71 b 817 -37 823 -71 817 -63 l 817 19 l 888 19 l 892 78 l 817 78 l 817 218 m 723 835 l 100 -74 l 156 -85 l 781 823 l 723 835 "},"#":{"x_min":23.140625,"x_max":605.703125,"ha":643,"o":"m 462 469 l 594 469 l 605 548 l 475 548 l 510 780 l 417 780 b 382 548 405 705 394 623 l 284 548 l 322 780 l 225 780 l 189 548 l 68 548 l 55 469 l 176 469 b 155 330 170 420 163 379 l 34 330 l 23 252 l 142 252 l 107 19 l 202 19 b 240 252 216 94 227 175 l 337 252 l 300 19 l 393 19 l 430 252 l 562 252 l 573 330 l 441 330 l 462 469 m 348 330 l 251 330 l 274 469 l 370 469 l 348 330 "},"Ê":{"x_min":31.9375,"x_max":737,"ha":781,"o":"m 36 0 l 700 0 b 737 234 709 74 723 160 l 678 248 b 531 63 655 145 606 63 l 323 63 b 304 103 310 63 304 71 l 304 448 l 458 448 b 505 349 492 448 497 406 b 527 335 505 344 513 335 l 556 335 l 564 348 b 554 477 561 371 554 427 b 564 606 554 528 561 584 l 556 620 l 527 620 b 505 605 513 620 505 610 b 458 506 497 549 492 506 l 304 506 l 304 792 b 323 833 304 821 310 833 l 500 833 b 644 659 591 833 625 730 l 699 671 b 670 896 685 742 675 816 l 36 896 l 31 894 l 31 862 b 42 851 31 855 37 851 l 61 851 b 136 789 116 851 136 834 l 136 106 b 61 45 136 62 116 45 l 42 45 b 31 33 37 45 31 41 l 31 2 l 36 0 m 430 1117 l 372 1117 b 237 987 330 1070 287 1026 l 256 958 b 402 1044 308 981 351 1006 b 546 958 447 1009 493 983 l 568 987 b 430 1117 519 1024 471 1067 "},")":{"x_min":23.140625,"x_max":379.75,"ha":438,"o":"m 379 348 b 63 995 379 411 372 723 l 23 951 b 223 348 66 901 223 715 b 23 -252 223 -18 63 -204 l 61 -300 b 379 348 239 -143 379 95 "},"Å":{"x_min":2.71875,"x_max":948.703125,"ha":971,"o":"m 344 400 b 318 417 319 400 318 404 l 435 714 l 548 400 l 344 400 m 371 992 b 434 889 371 946 397 907 b 424 871 430 883 427 878 l 121 126 b 29 46 98 69 57 46 b 2 32 13 46 2 46 l 2 3 l 13 -1 b 129 1 13 -1 95 1 b 287 -1 161 1 287 -1 l 294 4 l 294 32 b 265 46 294 43 287 46 b 201 110 185 46 186 69 l 279 315 b 321 335 287 333 294 335 l 571 335 l 656 101 b 658 82 658 97 658 89 b 624 46 658 61 647 46 l 588 46 b 552 32 563 46 552 43 l 552 5 l 563 -1 b 759 1 563 -1 710 1 b 941 -1 811 1 941 -1 l 948 4 l 948 32 b 928 46 948 43 948 46 l 890 46 b 818 126 856 46 837 75 l 543 871 b 534 886 540 876 537 882 b 604 992 575 904 604 944 b 487 1107 604 1057 548 1107 b 371 992 423 1107 371 1055 m 487 1064 b 553 992 524 1064 553 1032 b 487 921 553 955 526 921 b 420 992 447 921 420 955 b 487 1064 420 1030 449 1064 "},"ø":{"x_min":44.640625,"x_max":658.46875,"ha":721,"o":"m 474 421 b 495 255 488 375 495 321 b 374 45 495 79 423 45 b 251 141 318 45 277 86 l 474 421 m 339 560 b 447 489 383 560 420 535 l 225 214 b 210 318 216 250 210 286 b 338 560 210 436 251 560 l 339 560 m 583 660 l 516 575 b 352 616 473 600 418 616 b 44 287 154 616 44 478 b 120 84 44 216 70 141 l 50 -2 l 99 -47 l 169 40 b 350 -13 217 7 278 -13 b 658 300 561 -13 658 159 b 568 536 658 382 632 472 l 633 619 l 583 660 "},"â":{"x_min":49.046875,"x_max":645.328125,"ha":661,"o":"m 383 118 b 277 62 349 90 302 62 b 191 152 212 62 191 104 b 306 280 191 209 209 251 l 383 304 l 383 118 m 382 66 l 385 66 b 518 -13 401 12 437 -13 b 645 52 593 -13 645 45 b 627 80 645 62 633 80 b 585 58 619 80 618 58 b 531 175 532 58 531 111 l 531 376 b 307 616 531 576 419 616 b 65 461 208 616 65 544 b 129 402 65 425 80 402 b 200 455 167 402 200 436 b 191 515 200 472 191 487 b 288 563 191 545 236 563 b 383 356 345 563 383 533 l 285 327 b 49 131 144 284 49 241 b 212 -13 49 36 93 -13 b 382 66 269 -13 329 19 m 344 901 l 273 901 b 129 715 232 834 178 772 l 163 688 b 307 804 217 725 255 750 b 453 688 355 752 394 725 l 487 715 b 344 901 437 772 385 833 "},"}":{"x_min":49.828125,"x_max":362.875,"ha":425,"o":"m 136 -94 b 119 -213 136 -154 130 -194 b 49 -273 101 -247 78 -266 l 49 -300 b 228 -247 150 -297 202 -279 b 273 -84 258 -209 273 -155 l 273 175 b 362 341 273 244 286 319 l 362 348 b 273 518 289 366 273 433 l 273 758 b 230 934 273 837 258 897 b 49 987 207 966 154 984 l 49 962 b 117 902 63 959 89 951 b 136 779 130 880 136 838 l 136 552 b 225 344 136 441 139 386 b 136 154 154 311 136 269 l 136 -94 "},"Ä":{"x_min":2.71875,"x_max":948.703125,"ha":971,"o":"m 201 110 l 279 315 b 321 335 287 333 294 335 l 571 335 l 656 101 b 658 82 658 97 658 89 b 624 46 658 61 647 46 l 588 46 b 552 32 563 46 552 43 l 552 5 l 563 -1 b 759 1 563 -1 710 1 b 941 -1 811 1 941 -1 l 948 4 l 948 32 b 928 46 948 43 948 46 l 890 46 b 818 126 856 46 837 75 l 543 871 b 481 914 532 900 510 914 b 424 871 466 914 438 904 l 121 126 b 29 46 98 69 57 46 b 2 32 13 46 2 46 l 2 3 l 13 -1 b 129 1 13 -1 95 1 b 287 -1 161 1 287 -1 l 294 4 l 294 32 b 265 46 294 43 287 46 b 201 110 185 46 186 69 m 344 400 b 318 417 319 400 318 404 l 435 714 l 548 400 l 344 400 m 589 943 b 662 868 589 901 622 868 b 735 943 703 868 735 901 b 662 1018 735 985 703 1018 b 589 943 622 1018 589 985 m 231 943 b 304 868 231 901 264 868 b 377 943 345 868 377 901 b 304 1018 377 985 345 1018 b 231 943 264 1018 231 985 "},"¸":{"x_min":281.75,"x_max":528.109375,"ha":751,"o":"m 398 -111 b 455 -160 430 -111 455 -130 b 374 -216 455 -197 415 -216 b 295 -197 347 -216 332 -211 l 281 -228 b 382 -251 315 -243 338 -251 b 528 -153 465 -251 528 -212 b 431 -66 528 -100 485 -66 b 396 -71 419 -66 406 -68 l 428 9 l 382 9 l 329 -111 l 337 -119 b 398 -111 359 -112 372 -111 "},"a":{"x_min":49,"x_max":645.171875,"ha":661,"o":"m 383 118 b 277 62 349 90 302 62 b 191 152 212 62 191 104 b 306 280 191 209 209 251 l 383 304 l 383 118 m 382 66 l 385 66 b 518 -13 401 12 436 -13 b 645 52 593 -13 645 45 b 627 80 645 62 632 80 b 585 58 619 80 617 58 b 530 175 532 58 530 111 l 530 376 b 307 616 530 576 419 616 b 65 461 208 616 65 544 b 129 402 65 425 80 402 b 200 455 167 402 200 436 b 191 515 200 472 191 487 b 288 563 191 545 236 563 b 383 356 345 563 383 533 l 285 327 b 49 131 144 284 49 241 b 212 -13 49 36 93 -13 b 382 66 269 -13 329 19 "},"=":{"x_min":80.3125,"x_max":671.03125,"ha":765,"o":"m 671 448 l 80 448 l 80 369 l 671 369 l 671 448 m 671 275 l 80 275 l 80 197 l 671 197 l 671 275 "},"N":{"x_min":29.9375,"x_max":935.078125,"ha":986,"o":"m 743 790 l 743 233 l 231 897 l 34 897 l 29 892 l 29 866 b 57 851 29 856 34 851 b 152 777 100 851 127 812 l 152 105 b 66 44 152 60 121 44 l 47 44 b 36 31 42 44 36 40 l 36 0 l 39 -3 b 193 0 39 -3 140 0 b 340 -3 240 0 340 -3 l 343 0 l 343 31 b 332 44 343 40 338 44 l 313 44 b 238 105 257 44 238 66 l 238 652 l 714 20 b 778 -16 728 2 744 -16 b 830 34 818 -16 830 3 l 830 790 b 905 851 830 828 849 851 l 924 851 b 935 862 931 851 935 855 l 935 895 l 932 897 b 786 895 932 897 834 895 b 641 897 733 895 641 897 l 638 895 l 638 862 b 650 851 638 855 643 851 l 669 851 b 743 790 722 851 743 834 "},"ú":{"x_min":32.65625,"x_max":717.296875,"ha":764,"o":"m 628 159 l 628 491 b 631 605 628 546 631 605 b 549 602 631 605 578 602 b 398 605 513 602 398 605 l 393 602 l 393 560 l 398 557 l 441 555 b 479 488 465 555 479 532 l 479 106 b 341 55 428 61 371 55 b 268 196 313 55 268 80 l 268 491 b 269 605 268 542 269 605 b 190 602 269 605 209 602 b 39 605 146 602 39 605 l 32 602 l 32 560 l 36 557 l 78 555 b 118 488 110 552 118 530 l 118 177 b 307 -14 118 80 149 -14 b 483 48 357 -14 419 6 l 479 -17 l 525 -17 b 717 38 560 3 593 21 l 715 81 b 628 159 642 85 628 117 m 420 935 l 307 753 b 296 720 299 741 296 728 b 318 700 296 711 307 700 b 370 723 332 700 351 706 l 533 873 l 519 905 b 442 938 509 918 483 938 b 420 935 435 938 424 936 "},"2":{"x_min":66.671875,"x_max":573,"ha":643,"o":"m 76 612 b 148 555 76 580 108 555 b 220 611 179 555 220 570 b 215 638 220 618 219 627 b 209 672 210 648 209 658 b 304 750 209 702 234 750 b 408 593 340 750 408 713 b 307 376 408 505 375 448 l 212 276 b 66 0 80 137 66 77 l 543 0 b 573 190 548 55 556 120 l 514 202 b 421 90 489 113 472 90 l 219 90 b 370 306 219 154 321 258 b 567 598 483 416 567 500 b 313 802 567 761 431 802 b 76 612 153 802 76 693 "},"ü":{"x_min":31.984375,"x_max":716.625,"ha":764,"o":"m 628 159 l 628 491 b 630 605 628 546 630 605 b 549 602 630 605 577 602 b 398 605 512 602 398 605 l 392 602 l 392 560 l 398 557 l 440 555 b 478 488 464 555 478 532 l 478 106 b 340 55 428 61 370 55 b 267 196 312 55 267 80 l 267 491 b 268 605 267 542 268 605 b 189 602 268 605 208 602 b 38 605 146 602 38 605 l 31 602 l 31 560 l 36 557 l 78 555 b 117 488 109 552 117 530 l 117 177 b 306 -14 117 80 149 -14 b 482 48 357 -14 418 6 l 478 -17 l 524 -17 b 716 38 560 3 592 21 l 715 81 b 628 159 641 85 628 117 m 164 792 b 237 718 164 752 198 718 b 311 792 278 718 311 752 b 237 867 311 834 278 867 b 164 792 198 867 164 834 m 410 792 b 483 718 410 752 443 718 b 557 792 523 718 557 752 b 483 867 557 834 523 867 b 410 792 443 867 410 834 "},"¯":{"x_min":80.3125,"x_max":461.421875,"ha":551,"o":"m 428 729 b 461 772 446 729 461 756 b 442 795 461 781 455 795 l 110 795 b 80 752 93 795 80 768 b 96 729 80 743 84 729 l 428 729 "},"Z":{"x_min":27.609375,"x_max":814,"ha":867,"o":"m 778 0 b 814 229 784 77 799 156 l 758 236 b 588 61 731 136 691 61 l 284 61 b 262 100 242 61 245 73 l 771 820 b 804 888 799 859 804 873 b 774 902 804 898 800 902 b 688 895 756 902 731 900 l 203 895 b 92 913 139 895 143 909 b 63 681 87 838 73 738 l 116 675 b 272 836 146 770 170 836 l 565 836 b 567 804 589 836 577 818 l 38 52 b 27 20 30 41 27 30 b 53 0 27 6 34 0 l 778 0 "},"u":{"x_min":32.671875,"x_max":717.3125,"ha":764,"o":"m 628 159 l 628 491 b 631 605 628 546 631 605 b 549 602 631 605 578 602 b 398 605 513 602 398 605 l 393 602 l 393 560 l 398 557 l 441 555 b 479 488 465 555 479 532 l 479 106 b 341 55 428 61 371 55 b 268 196 313 55 268 80 l 268 491 b 269 605 268 542 269 605 b 190 602 269 605 209 602 b 39 605 147 602 39 605 l 32 602 l 32 560 l 36 557 l 78 555 b 118 488 110 552 118 530 l 118 177 b 307 -14 118 80 149 -14 b 483 48 357 -14 419 6 l 479 -17 l 525 -17 b 717 38 560 3 593 21 l 715 81 b 628 159 642 85 628 117 "},"Ó":{"x_min":50.359375,"x_max":944.609375,"ha":1014,"o":"m 944 456 b 494 913 944 733 735 913 b 50 431 235 913 50 704 b 495 -13 50 156 247 -13 b 944 456 770 -13 944 179 m 477 856 b 764 430 631 856 764 712 b 522 43 764 188 660 43 b 228 455 362 43 228 194 b 477 856 228 738 362 856 m 526 1138 l 357 1019 b 337 990 340 1006 337 1000 b 356 969 337 976 344 969 b 415 986 368 969 386 973 l 611 1066 l 526 1138 "},"k":{"x_min":16.328125,"x_max":695.53125,"ha":726,"o":"m 112 106 b 47 46 112 67 89 53 l 31 44 b 20 31 24 42 20 40 l 20 0 l 23 -3 b 185 0 23 -3 137 0 b 347 -3 238 0 347 -3 l 349 0 l 349 31 b 338 44 349 40 343 42 l 329 46 b 262 106 285 59 262 67 l 262 289 b 311 263 284 288 296 284 b 404 108 343 216 381 158 b 426 35 421 69 426 56 l 426 0 l 428 -3 b 543 0 428 -3 495 0 b 691 -3 596 0 691 -3 l 695 0 l 695 35 b 684 44 695 41 691 42 l 645 48 b 568 108 624 49 592 71 l 411 345 b 406 373 404 355 401 366 l 509 487 b 616 555 541 520 590 552 l 657 557 b 671 571 669 557 671 560 l 671 602 l 666 605 b 510 602 666 605 563 602 b 371 605 462 602 371 605 l 364 602 l 364 571 b 382 557 364 563 367 559 l 411 555 b 426 484 430 552 457 525 b 338 384 394 442 366 407 b 262 345 321 369 291 349 l 262 809 b 266 955 262 899 266 955 b 245 968 266 964 257 968 b 16 932 209 955 70 936 l 20 892 b 28 885 20 888 23 885 l 72 882 b 112 781 99 882 112 871 l 112 106 "},"₯":{"x_min":-10.421875,"x_max":1395.609375,"ha":1475,"o":"m 540 918 l 528 952 b 312 800 430 908 355 862 l 332 802 b 23 687 227 786 131 750 l 45 641 b 274 738 125 680 208 719 b 188 475 238 669 210 584 l 114 94 b 71 43 106 58 97 43 l 34 43 b -4 27 8 43 -2 36 l -10 -2 b 176 1 38 -1 124 0 b 223 0 193 1 206 1 b 357 -1 250 0 287 -1 b 808 458 642 -1 808 215 b 446 809 808 656 651 809 l 442 809 b 540 918 472 858 502 888 m 837 -256 b 900 -36 862 -206 881 -117 l 908 5 b 1000 -4 932 -1 961 -4 b 1395 372 1252 -4 1395 226 b 1165 565 1395 484 1308 565 b 946 491 1098 565 1010 544 b 813 241 902 454 849 405 b 758 -2 795 166 774 72 b 668 -274 721 -158 691 -237 l 682 -311 l 837 -256 m 344 473 b 418 756 370 608 393 700 b 647 454 577 747 647 605 b 329 51 647 268 583 51 b 268 76 269 51 268 55 b 271 98 268 86 268 90 l 344 473 m 1226 368 b 1025 43 1226 222 1157 43 b 931 108 1003 43 979 61 l 973 297 b 1124 506 1014 475 1077 506 b 1226 368 1183 506 1226 473 "},"Ù":{"x_min":8.796875,"x_max":912.578125,"ha":942,"o":"m 708 790 l 708 385 b 482 42 708 235 682 42 b 343 110 432 42 383 72 b 281 374 281 176 281 283 l 281 790 b 354 851 281 828 298 851 l 373 851 b 384 862 380 851 384 855 l 384 895 l 381 897 b 198 895 381 897 245 895 b 11 897 143 895 11 897 l 8 895 l 8 862 b 21 851 8 855 14 851 l 40 851 b 113 790 93 851 113 834 l 113 328 b 453 -14 113 65 321 -14 b 807 409 754 -14 807 162 l 807 790 b 882 851 807 828 826 851 l 901 851 b 912 862 908 851 912 855 l 912 895 l 909 897 b 757 895 909 897 806 895 b 604 897 704 895 604 897 l 602 895 l 602 862 b 614 851 602 855 607 851 l 633 851 b 708 790 686 851 708 834 m 376 1135 l 272 1073 l 482 985 b 541 969 512 973 530 969 b 561 990 554 969 561 976 b 541 1019 561 999 555 1008 l 376 1135 "},"€":{"x_min":6.8125,"x_max":596.171875,"ha":643,"o":"m 25 423 l 69 423 b 69 386 69 411 69 398 b 69 359 69 376 69 368 l 32 359 l 6 316 l 6 305 l 73 305 b 382 -18 99 106 221 -18 b 545 2 453 -18 507 5 b 596 212 555 58 585 148 l 544 222 b 396 40 514 130 494 40 b 230 305 285 40 240 125 l 435 305 l 461 359 l 228 359 b 228 401 228 372 228 386 b 228 423 228 408 228 415 l 483 423 l 509 477 l 230 477 b 386 762 239 634 280 762 b 536 580 484 762 513 673 l 588 587 b 560 790 575 651 562 731 b 389 811 522 787 460 811 b 74 477 235 811 104 681 l 53 477 l 27 436 l 25 423 "},"¢":{"x_min":40.921875,"x_max":549.984375,"ha":608,"o":"m 302 173 b 196 412 241 209 196 298 b 302 651 196 545 242 631 l 302 173 m 302 811 l 302 712 b 40 377 156 695 40 562 b 302 84 40 205 126 95 l 302 -16 l 348 -16 l 348 84 b 543 219 435 90 505 140 l 515 245 b 364 155 457 179 415 155 b 348 155 359 155 353 155 l 348 654 b 404 558 385 641 400 595 b 481 493 408 520 438 493 b 549 570 525 493 549 527 b 348 713 549 643 487 709 l 348 811 l 302 811 "},"ß":{"x_min":29.9375,"x_max":743.171875,"ha":806,"o":"m 125 669 b 68 602 125 631 110 602 b 36 574 44 602 36 585 l 36 555 b 44 548 36 549 38 548 l 104 548 b 125 526 123 548 125 542 l 125 106 b 66 47 125 66 112 51 l 40 44 b 29 31 34 42 29 40 l 29 0 l 32 -3 b 197 0 32 -3 148 0 b 343 -3 250 0 343 -3 l 345 0 l 345 31 b 334 44 345 40 340 42 b 274 126 295 49 274 77 l 274 620 b 432 917 274 770 291 917 b 514 797 504 917 514 872 b 396 567 514 695 487 640 l 396 549 b 577 216 510 460 577 345 b 510 35 577 90 551 35 b 450 73 480 35 450 42 b 466 135 450 98 466 112 b 411 181 466 163 438 181 b 362 126 389 181 362 147 b 510 -14 362 65 397 -14 b 743 240 635 -14 743 94 b 479 567 743 401 585 495 l 479 570 b 671 815 573 644 671 708 b 445 969 671 881 586 969 b 125 669 338 969 125 897 "},"é":{"x_min":46.359375,"x_max":586.71875,"ha":640,"o":"m 540 151 b 388 63 490 88 439 63 b 202 304 281 63 202 168 l 202 340 l 533 340 b 586 369 566 340 586 350 b 339 616 586 487 539 616 b 46 275 196 616 46 487 b 334 -13 46 122 128 -13 b 574 122 428 -13 524 18 l 540 151 m 209 395 b 337 558 228 537 309 558 b 430 411 374 558 430 522 b 427 395 430 402 430 398 l 209 395 m 383 936 l 270 754 b 260 720 262 741 260 729 b 281 701 260 712 270 701 b 333 723 295 701 314 706 l 496 873 l 483 905 b 405 938 472 919 446 938 b 383 936 398 938 388 937 "},"s":{"x_min":50,"x_max":497.21875,"ha":557,"o":"m 50 201 b 66 1 59 129 66 68 b 261 -15 137 2 195 -15 b 497 163 366 -15 497 31 b 283 376 497 272 400 331 b 208 477 227 397 208 429 b 284 556 208 533 247 556 b 416 427 345 556 389 525 l 470 434 b 455 576 465 484 460 534 b 280 615 401 602 355 615 b 67 444 156 615 67 540 b 255 237 67 333 187 262 b 345 129 330 211 345 183 b 265 38 345 65 302 38 b 104 204 163 38 129 84 l 50 201 "},"B":{"x_min":29.9375,"x_max":785.359375,"ha":861,"o":"m 29 28 l 29 0 l 31 0 l 416 0 b 785 243 695 0 785 123 b 581 498 785 366 725 459 l 581 500 b 711 681 654 534 711 610 b 386 898 711 777 660 898 b 209 895 318 898 250 895 b 32 898 168 895 32 898 l 29 895 l 29 864 b 49 850 29 854 34 850 l 93 850 b 134 793 126 850 134 835 l 134 102 b 93 45 134 57 125 45 l 54 45 b 29 28 34 45 29 38 m 300 463 l 397 463 b 612 259 537 463 612 378 b 390 54 612 175 570 54 b 300 116 308 54 300 75 l 300 463 m 300 779 b 396 839 300 820 307 839 b 548 678 458 839 548 814 b 377 521 548 567 473 521 l 300 521 l 300 779 "},"?":{"x_min":35.390625,"x_max":545.8125,"ha":597,"o":"m 185 62 b 261 -13 185 20 219 -13 b 337 62 303 -13 337 20 b 261 140 337 105 303 140 b 185 62 219 140 185 105 m 172 793 b 280 865 172 831 220 865 b 389 712 356 865 389 793 b 314 547 389 643 362 590 b 215 320 217 456 215 377 l 215 286 b 261 238 215 255 219 238 b 308 286 303 238 308 255 l 308 318 b 392 483 308 418 353 455 b 545 702 460 534 545 600 b 294 915 545 830 449 915 b 107 861 210 915 148 894 b 35 741 61 820 35 790 b 112 661 35 688 80 661 b 185 718 153 661 185 683 b 172 793 185 755 172 763 "},"H":{"x_min":29.9375,"x_max":955.5,"ha":1004,"o":"m 683 789 l 683 509 l 302 509 l 302 789 b 377 850 302 828 321 850 l 396 850 b 406 861 402 850 406 854 l 406 895 l 404 898 b 217 895 404 898 266 895 b 32 898 164 895 32 898 l 29 895 l 29 861 b 40 850 29 854 35 850 l 59 850 b 134 789 114 850 134 834 l 134 105 b 59 44 134 60 114 44 l 40 44 b 29 31 35 44 29 40 l 29 0 l 32 -3 b 217 0 32 -3 164 0 b 404 -3 266 0 404 -3 l 406 0 l 406 31 b 396 44 406 40 402 44 l 377 44 b 302 105 321 44 302 66 l 302 445 l 683 445 l 683 105 b 608 44 683 60 662 44 l 589 44 b 578 31 583 44 578 40 l 578 0 l 581 -3 b 766 0 581 -3 713 0 b 952 -3 815 0 952 -3 l 955 0 l 955 31 b 944 44 955 40 951 44 l 925 44 b 850 105 869 44 850 66 l 850 789 b 925 850 850 828 869 850 l 944 850 b 955 861 951 850 955 854 l 955 895 l 952 898 b 766 895 952 898 815 895 b 581 898 713 895 581 898 l 578 895 l 578 861 b 589 850 578 854 583 850 l 608 850 b 683 789 662 850 683 834 "},"î":{"x_min":6.8125,"x_max":375.671875,"ha":397,"o":"m 287 445 b 291 616 287 515 291 616 b 281 620 291 619 284 620 b 49 578 238 606 142 591 l 51 531 l 107 526 b 137 445 126 523 137 515 l 137 106 b 73 47 137 67 115 53 l 57 44 b 47 31 51 42 47 40 l 47 0 l 50 -3 b 209 0 50 -3 160 0 b 372 -3 262 0 372 -3 l 375 0 l 375 31 b 364 44 375 40 368 42 l 351 47 b 287 106 310 53 287 67 l 287 445 m 221 901 l 151 901 b 6 715 110 834 55 772 l 40 688 b 185 803 95 724 133 749 b 330 688 232 752 272 724 l 364 715 b 221 901 314 772 262 833 "},"c":{"x_min":50.921875,"x_max":559.984375,"ha":604,"o":"m 553 120 l 525 147 b 374 56 467 80 425 56 b 206 313 285 56 206 163 b 339 558 206 468 267 558 b 414 459 391 558 410 504 b 491 394 418 422 448 394 b 559 472 535 394 559 429 b 344 616 559 547 493 616 b 50 279 184 616 50 477 b 339 -13 50 98 146 -13 b 553 120 436 -13 512 36 "},"¶":{"x_min":36.75,"x_max":779.921875,"ha":836,"o":"m 553 -287 b 513 -198 518 -287 513 -238 l 513 768 b 558 855 513 811 514 855 b 597 772 579 854 597 852 l 597 -201 b 553 -287 597 -259 593 -287 m 677 -199 l 677 772 b 732 858 677 836 683 858 l 771 858 b 779 868 777 858 779 862 l 779 897 l 628 894 b 534 890 628 894 582 890 b 313 897 498 890 415 897 b 36 609 133 897 36 780 b 328 299 36 362 215 299 b 432 315 371 299 413 305 l 432 -198 b 379 -285 432 -270 424 -284 l 340 -285 b 332 -295 334 -285 332 -288 l 332 -324 l 779 -324 l 779 -295 b 771 -285 779 -289 777 -285 l 732 -285 b 677 -199 688 -284 677 -277 "},"¥":{"x_min":-9.53125,"x_max":665.578125,"ha":643,"o":"m 567 230 l 405 230 l 405 318 l 567 318 l 567 373 l 421 373 l 562 695 b 645 753 579 738 604 753 l 653 753 b 665 764 665 753 665 759 l 665 795 l 664 798 b 540 793 638 795 552 793 b 434 798 524 793 445 796 l 431 795 l 431 763 b 439 753 431 759 432 753 l 461 753 b 481 698 499 753 504 755 l 353 402 l 216 698 b 234 752 200 735 198 752 l 253 752 b 261 765 258 752 261 759 l 261 795 l 258 798 b 141 793 239 795 149 793 b -8 798 125 793 6 795 l -9 795 l -9 763 b 4 752 -9 755 0 753 l 13 752 b 84 695 49 752 66 734 l 238 373 l 83 373 l 83 318 l 246 318 l 246 230 l 83 230 l 83 176 l 246 176 l 246 107 b 171 46 246 68 227 46 l 136 46 b 125 33 129 46 125 42 l 125 1 l 127 -1 b 328 1 127 -1 279 1 b 525 -1 381 1 525 -1 l 528 1 l 528 33 b 515 46 528 42 522 46 l 480 46 b 405 107 426 46 405 64 l 405 176 l 567 176 l 567 230 "},"(":{"x_min":49,"x_max":405.609375,"ha":438,"o":"m 49 351 b 364 -296 49 288 55 -23 l 405 -251 b 205 351 362 -201 205 -15 b 405 952 205 717 364 904 l 367 999 b 49 351 189 842 49 604 "},"U":{"x_min":9.53125,"x_max":913.3125,"ha":942,"o":"m 709 790 l 709 385 b 483 42 709 235 683 42 b 344 110 432 42 383 72 b 281 374 281 176 281 283 l 281 790 b 355 851 281 828 299 851 l 374 851 b 385 862 381 851 385 855 l 385 895 l 382 897 b 198 895 382 897 246 895 b 12 897 144 895 12 897 l 9 895 l 9 862 b 21 851 9 855 14 851 l 40 851 b 114 790 93 851 114 834 l 114 328 b 454 -14 114 65 322 -14 b 808 409 755 -14 808 162 l 808 790 b 883 851 808 828 827 851 l 902 851 b 913 862 909 851 913 855 l 913 895 l 910 897 b 758 895 910 897 807 895 b 605 897 705 895 605 897 l 602 895 l 602 862 b 615 851 602 855 608 851 l 634 851 b 709 790 687 851 709 834 "},"Ñ":{"x_min":29.5,"x_max":935.28125,"ha":986,"o":"m 743 790 l 743 233 l 230 897 l 33 897 l 29 892 l 29 866 b 56 851 29 856 33 851 b 152 777 100 851 127 812 l 152 105 b 66 44 152 60 120 44 l 47 44 b 36 31 41 44 36 40 l 36 0 l 39 -3 b 192 0 39 -3 139 0 b 339 -3 240 0 339 -3 l 342 0 l 342 31 b 331 44 342 40 338 44 l 312 44 b 237 105 256 44 237 66 l 237 652 l 714 20 b 778 -16 728 2 744 -16 b 830 34 818 -16 830 3 l 830 790 b 905 851 830 828 849 851 l 924 851 b 935 862 931 851 935 855 l 935 895 l 932 897 b 786 895 932 897 834 895 b 641 897 733 895 641 897 l 638 895 l 638 862 b 650 851 638 855 643 851 l 669 851 b 743 790 722 851 743 834 m 588 1036 b 513 1071 560 1036 537 1051 b 412 1115 485 1093 454 1115 b 299 968 350 1115 318 1062 l 334 957 b 401 1030 349 1009 364 1030 b 480 994 425 1030 453 1012 b 568 952 507 973 537 952 b 693 1102 634 952 675 1008 l 654 1116 b 588 1036 635 1048 618 1036 "},"F":{"x_min":32.421875,"x_max":698,"ha":713,"o":"m 303 105 l 303 448 l 457 448 b 504 349 491 448 496 406 b 526 335 504 344 512 335 l 555 335 l 563 348 b 553 477 560 372 553 426 b 563 606 553 527 560 584 l 555 620 l 526 620 b 504 605 512 620 504 610 b 457 506 496 549 491 506 l 303 506 l 303 792 b 322 833 303 822 310 833 l 499 833 b 643 659 590 833 624 730 l 698 672 b 669 897 684 742 674 816 l 36 897 l 32 894 l 32 862 b 43 851 32 855 37 851 l 62 851 b 137 790 116 851 137 834 l 137 105 b 62 44 137 60 116 44 l 43 44 b 32 31 37 44 32 40 l 32 0 l 35 -3 b 220 0 35 -3 167 0 b 405 -3 269 0 405 -3 l 408 0 l 408 31 b 397 44 408 40 404 44 l 378 44 b 303 105 322 44 303 66 "},"­":{"x_min":34.03125,"x_max":453.25,"ha":486,"o":"m 389 323 b 453 379 420 323 453 361 b 404 408 453 394 442 408 l 96 408 b 34 352 68 408 34 376 b 84 323 34 337 51 323 l 389 323 "},":":{"x_min":100.71875,"x_max":253.171875,"ha":304,"o":"m 100 130 b 176 54 100 88 134 54 b 253 130 219 54 253 88 b 176 208 253 173 219 208 b 100 130 134 208 100 173 m 100 495 b 176 419 100 454 134 419 b 253 495 219 419 253 454 b 176 573 253 538 219 573 b 100 495 134 573 100 538 "},"Û":{"x_min":9.53125,"x_max":913.3125,"ha":942,"o":"m 709 790 l 709 385 b 483 42 709 235 683 42 b 344 110 432 42 383 72 b 281 374 281 176 281 283 l 281 790 b 355 851 281 828 299 851 l 374 851 b 385 862 381 851 385 855 l 385 895 l 382 897 b 198 895 382 897 246 895 b 12 897 144 895 12 897 l 9 895 l 9 862 b 21 851 9 855 14 851 l 40 851 b 114 790 93 851 114 834 l 114 328 b 454 -14 114 65 322 -14 b 808 409 755 -14 808 162 l 808 790 b 883 851 808 828 827 851 l 902 851 b 913 862 909 851 913 855 l 913 895 l 910 897 b 758 895 910 897 807 895 b 605 897 705 895 605 897 l 602 895 l 602 862 b 615 851 602 855 608 851 l 634 851 b 709 790 687 851 709 834 m 504 1117 l 446 1117 b 311 987 404 1070 362 1026 l 330 958 b 476 1044 382 981 426 1006 b 620 958 521 1009 567 983 l 642 987 b 504 1117 593 1024 545 1067 "},"*":{"x_min":102.09375,"x_max":482.25,"ha":601,"o":"m 268 786 b 155 665 223 733 155 740 b 194 626 155 644 171 626 b 290 766 275 626 255 704 b 386 626 324 712 320 626 b 430 666 406 626 430 641 b 314 784 430 737 361 734 b 388 788 339 788 362 788 b 482 844 435 788 482 802 b 429 891 482 858 471 891 b 308 816 384 891 369 843 b 342 948 310 858 342 911 b 287 997 342 981 312 997 b 235 943 262 997 235 972 b 276 816 235 906 271 872 b 147 888 216 843 193 888 b 102 844 114 888 102 863 b 212 793 102 781 151 781 b 268 786 232 795 250 788 "},"₫":{"x_min":40.828125,"x_max":694.171875,"ha":732,"o":"m 454 475 l 454 116 b 348 55 405 68 375 55 b 206 307 270 55 206 132 b 347 557 206 509 291 557 b 454 475 389 557 424 521 m 661 793 l 604 793 l 604 809 b 608 955 604 899 608 955 b 586 968 608 964 598 968 b 357 932 551 955 412 937 l 362 892 b 370 885 362 888 364 885 l 413 882 b 453 793 439 882 453 871 l 258 793 l 258 739 l 454 739 l 454 581 b 366 616 435 600 387 616 b 142 532 261 616 198 585 b 50 284 80 468 50 382 b 314 -14 50 111 170 -14 b 457 48 371 -14 405 2 l 454 -17 l 500 -17 b 694 38 545 6 604 28 l 691 81 b 604 159 619 88 604 117 l 604 739 l 662 739 l 661 793 m 40 -68 l 40 -132 l 661 -132 l 661 -68 l 40 -68 "},"°":{"x_min":46.28125,"x_max":317.140625,"ha":371,"o":"m 46 729 b 182 591 46 652 107 591 b 317 729 257 591 317 652 b 182 868 317 806 257 868 b 46 729 107 868 46 806 m 268 727 b 182 636 268 681 236 636 b 96 727 126 636 96 681 b 182 823 96 775 126 823 b 268 727 240 823 268 770 "},"V":{"x_min":0,"x_max":867.03125,"ha":883,"o":"m 581 851 b 657 780 669 851 677 838 l 480 295 l 464 256 l 449 299 l 279 794 b 375 851 264 837 289 851 b 386 862 382 851 386 855 l 386 895 l 383 897 b 187 895 383 897 236 895 b 2 897 134 895 2 897 l 0 895 l 0 862 b 10 851 0 855 5 851 b 119 769 80 851 96 833 l 378 15 b 423 -16 385 -5 408 -16 b 469 15 436 -16 461 -5 l 743 762 b 856 851 770 835 779 851 b 867 862 862 851 867 855 l 867 895 l 864 897 b 744 895 864 897 793 895 b 573 897 691 895 573 897 l 570 895 l 570 862 b 581 851 570 855 575 851 "},"å":{"x_min":49,"x_max":645.171875,"ha":661,"o":"m 383 118 b 277 62 349 90 302 62 b 191 152 212 62 191 104 b 306 280 191 209 209 251 l 383 304 l 383 118 m 382 66 l 385 66 b 518 -13 401 12 436 -13 b 645 52 593 -13 645 45 b 627 80 645 62 632 80 b 585 58 619 80 617 58 b 530 175 532 58 530 111 l 530 376 b 307 616 530 576 419 616 b 65 461 208 616 65 544 b 129 402 65 425 80 402 b 200 455 167 402 200 436 b 191 515 200 472 191 487 b 288 563 191 545 236 563 b 383 356 345 563 383 533 l 285 327 b 49 131 144 284 49 241 b 212 -13 49 36 93 -13 b 382 66 269 -13 329 19 m 186 808 b 302 693 186 744 239 693 b 419 808 366 693 419 745 b 302 923 419 873 363 923 b 186 808 238 923 186 872 m 302 880 b 368 808 338 880 368 848 b 302 737 368 772 341 737 b 235 808 262 737 235 772 b 302 880 235 847 264 880 "}," ":{"x_min":0,"x_max":0,"ha":347},"0":{"x_min":47.640625,"x_max":583.921875,"ha":643,"o":"m 313 -16 b 583 400 423 -16 583 90 b 498 709 583 523 556 629 b 318 802 455 759 386 802 b 47 387 175 802 47 647 b 313 -16 47 173 151 -16 m 318 744 b 355 725 329 744 341 737 b 427 425 390 694 427 601 b 400 156 427 304 417 220 b 314 38 374 54 330 38 b 205 373 221 38 205 262 b 318 744 205 690 273 744 "},"¾":{"x_min":46.875,"x_max":898.609375,"ha":917,"o":"m 823 220 b 807 234 823 233 814 234 b 739 205 796 234 750 217 b 731 181 736 201 731 190 l 731 80 l 602 80 l 773 333 l 722 347 l 508 38 l 524 21 l 731 21 l 731 -36 b 699 -69 731 -65 724 -69 l 679 -69 b 673 -75 675 -69 673 -72 l 668 -110 b 770 -108 668 -110 731 -108 b 882 -110 814 -108 882 -110 l 882 -75 b 876 -69 882 -72 880 -69 l 855 -69 b 823 -35 829 -69 823 -61 l 823 21 l 894 21 l 898 80 l 823 80 l 823 220 m 264 791 b 140 690 264 736 200 698 l 144 653 b 200 662 182 661 196 662 b 301 573 255 662 301 647 b 198 468 301 483 217 468 b 141 491 175 468 151 477 b 84 520 133 504 122 520 b 46 476 60 520 46 498 b 185 426 46 444 122 426 b 403 583 307 426 403 486 b 301 707 403 654 352 693 b 367 798 341 732 367 765 b 231 884 367 853 319 884 b 59 783 91 884 59 808 b 104 747 59 778 60 747 b 144 798 143 747 144 780 b 214 846 147 828 198 846 b 264 791 240 846 264 829 m 724 834 l 101 -75 l 157 -86 l 781 823 l 724 834 "},"@":{"x_min":125.21875,"x_max":1211.390625,"ha":1372,"o":"m 871 104 b 888 196 871 120 880 160 l 969 554 l 932 570 l 882 524 b 754 576 858 553 819 576 b 431 220 597 576 431 421 b 604 42 431 163 446 42 b 748 106 637 42 692 53 b 868 26 748 76 773 26 b 1211 399 1050 26 1211 204 b 698 863 1211 661 1005 863 b 125 307 353 863 125 595 b 683 -221 125 -9 360 -221 b 1023 -103 850 -221 936 -171 l 994 -63 b 709 -167 910 -134 813 -167 b 253 317 377 -167 253 111 b 686 811 253 638 475 811 b 1095 379 845 811 1095 686 b 895 85 1095 179 945 85 b 871 104 880 85 871 86 m 824 445 b 785 268 824 411 798 314 b 639 100 748 149 680 100 b 563 228 575 100 563 163 b 647 476 563 315 586 408 b 758 531 695 528 739 531 b 824 445 792 531 824 493 "},"ö":{"x_min":46.28125,"x_max":660.140625,"ha":721,"o":"m 46 287 b 352 -13 46 144 152 -13 b 660 300 563 -13 660 159 b 353 616 660 445 575 616 b 46 287 156 616 46 477 m 340 559 b 495 255 432 559 495 454 b 374 45 495 79 423 45 b 212 318 262 45 212 215 b 340 559 212 436 253 559 m 149 793 b 223 719 149 752 183 719 b 296 793 264 719 296 752 b 223 868 296 834 264 868 b 149 793 183 868 149 834 m 396 793 b 469 719 396 752 428 719 b 543 793 509 719 543 752 b 469 868 543 834 509 868 b 396 793 428 868 396 834 "},"i":{"x_min":47.640625,"x_max":375.671875,"ha":397,"o":"m 129 792 b 210 709 129 747 166 709 b 292 792 255 709 292 747 b 210 876 292 838 255 876 b 129 792 166 876 129 838 m 287 445 b 291 616 287 515 291 616 b 281 620 291 619 284 620 b 49 578 238 606 142 591 l 51 537 l 107 531 b 137 445 126 530 137 515 l 137 106 b 73 47 137 67 115 53 l 57 44 b 47 31 51 42 47 40 l 47 0 l 50 -3 b 209 0 50 -3 160 0 b 372 -3 262 0 372 -3 l 375 0 l 375 31 b 364 44 375 40 368 42 l 351 47 b 287 106 310 53 287 67 l 287 445 "},"Õ":{"x_min":50.4375,"x_max":944.328125,"ha":1014,"o":"m 944 457 b 493 914 944 733 734 914 b 50 432 235 914 50 704 b 495 -13 50 157 247 -13 b 944 457 770 -13 944 179 m 477 857 b 764 430 631 857 764 712 b 522 43 764 189 659 43 b 228 455 362 43 228 194 b 477 857 228 739 362 857 m 578 1036 b 503 1071 551 1036 527 1051 b 402 1115 476 1093 445 1115 b 290 968 341 1115 309 1062 l 325 957 b 391 1030 340 1009 355 1030 b 470 994 416 1030 443 1012 b 559 952 498 973 527 952 b 683 1102 624 952 665 1008 l 644 1116 b 578 1036 625 1048 608 1036 "},"þ":{"x_min":34.03125,"x_max":675.109375,"ha":743,"o":"m 280 809 b 284 955 280 899 284 955 b 262 969 284 965 274 969 b 34 933 227 955 88 937 l 38 892 b 46 885 38 888 40 885 l 89 883 b 130 781 117 883 130 871 l 130 -213 b 65 -275 130 -252 107 -266 l 53 -277 b 42 -288 46 -280 42 -281 l 42 -322 l 44 -325 b 202 -322 44 -325 153 -322 b 366 -325 255 -322 366 -325 l 368 -322 l 368 -288 b 356 -277 368 -281 362 -280 l 345 -275 b 280 -213 303 -265 280 -252 l 280 9 b 371 -14 303 -1 340 -14 b 570 65 454 -14 517 10 b 675 328 637 133 675 220 b 445 616 675 476 593 616 b 277 519 362 616 313 573 l 280 809 m 280 449 b 401 542 314 509 368 542 b 518 291 481 542 518 453 b 363 44 518 174 481 44 b 280 90 348 44 314 52 l 280 449 "},"]":{"x_min":-12.25,"x_max":334.828125,"ha":521,"o":"m -12 -277 l 334 -277 l 334 954 l -12 954 l -12 883 l 185 883 l 185 -206 l -12 -206 l -12 -277 "},"m":{"x_min":43.5625,"x_max":1067.109375,"ha":1113,"o":"m 279 528 l 281 616 b 272 620 281 619 274 620 b 43 578 228 606 138 591 l 46 531 l 102 526 b 132 445 121 524 132 515 l 132 103 b 66 47 132 65 110 56 l 54 44 b 43 31 47 42 43 40 l 43 0 l 46 -3 b 204 0 46 -3 156 0 b 356 -3 258 0 356 -3 l 359 0 l 359 31 b 347 44 359 40 353 42 b 281 103 315 48 281 55 l 281 473 b 423 540 338 522 383 540 b 479 417 457 540 479 505 l 479 105 b 415 44 479 66 460 48 b 402 31 406 42 402 38 l 402 0 l 405 -3 b 552 0 405 -3 503 0 b 703 -3 605 0 703 -3 l 706 0 l 706 31 b 695 44 706 40 700 44 b 628 105 662 48 628 56 l 628 391 b 626 472 628 410 627 453 b 774 540 679 517 728 540 b 828 420 807 540 828 503 l 828 105 b 763 44 828 66 809 48 b 752 31 755 42 752 38 l 752 0 l 755 -3 b 901 0 755 -3 853 0 b 1064 -3 954 0 1064 -3 l 1067 0 l 1067 31 b 1056 44 1067 40 1061 42 l 1045 47 b 978 105 1003 58 978 66 l 978 390 b 822 616 978 515 965 616 b 612 524 749 616 675 580 b 472 616 592 578 544 616 b 281 528 397 616 329 572 l 279 528 "},"8":{"x_min":61.25,"x_max":592.078125,"ha":664,"o":"m 319 37 b 197 191 261 37 197 76 b 288 384 197 230 200 319 l 348 347 b 450 186 427 295 450 248 b 319 37 450 61 378 37 m 559 643 b 336 802 559 737 481 802 b 92 620 171 802 92 722 b 219 429 92 547 140 479 l 242 415 b 61 191 141 338 61 290 b 317 -13 61 56 175 -13 b 592 212 490 -13 592 112 b 479 408 592 288 545 362 l 400 461 b 559 643 457 500 559 558 m 329 756 b 423 631 406 756 423 693 b 352 491 423 561 387 518 l 313 516 b 235 645 257 551 235 605 b 329 756 235 706 258 756 "},"R":{"x_min":30.15625,"x_max":841.375,"ha":846,"o":"m 724 669 b 404 908 724 839 567 908 b 32 892 245 908 61 899 l 32 844 b 43 835 32 839 36 835 l 84 839 l 94 839 b 134 776 129 839 134 815 l 134 107 b 60 46 134 68 115 46 l 41 46 b 30 33 34 46 30 42 l 30 1 l 32 -1 b 249 1 32 -1 200 1 b 403 -1 302 1 403 -1 l 405 1 l 405 33 b 394 46 405 42 400 46 l 375 46 b 301 107 321 46 301 64 l 301 383 b 430 343 371 383 411 378 l 552 110 b 729 -7 588 44 649 -7 b 841 7 750 -7 801 -5 l 835 56 b 709 136 781 49 739 75 l 569 408 b 724 669 665 461 724 529 m 560 650 b 367 447 560 511 499 447 l 301 447 l 301 840 b 411 851 333 847 362 851 b 560 650 492 851 560 787 "},"á":{"x_min":49.15625,"x_max":645.328125,"ha":661,"o":"m 384 118 b 277 62 349 90 302 62 b 192 152 212 62 192 104 b 306 280 192 209 209 251 l 384 304 l 384 118 m 382 66 l 385 66 b 518 -13 401 12 437 -13 b 645 52 593 -13 645 45 b 627 80 645 62 633 80 b 585 58 619 80 618 58 b 531 175 532 58 531 111 l 531 376 b 307 616 531 576 419 616 b 65 461 208 616 65 544 b 129 402 65 425 80 402 b 200 455 167 402 200 436 b 192 515 200 472 192 487 b 288 563 192 545 237 563 b 384 356 345 563 384 533 l 286 327 b 49 131 144 284 49 241 b 212 -13 49 36 94 -13 b 382 66 269 -13 329 19 m 348 936 l 235 754 b 224 720 227 741 224 729 b 246 701 224 712 235 701 b 298 723 260 701 279 706 l 461 873 l 447 905 b 370 938 437 919 411 938 b 348 936 363 938 352 937 "},"×":{"x_min":140,"x_max":580,"ha":732,"o":"m 416 322 l 580 487 l 520 546 l 362 379 l 199 546 l 140 480 l 300 315 l 140 154 l 195 96 l 356 259 l 521 96 l 580 154 l 416 322 "},"o":{"x_min":46.28125,"x_max":660.140625,"ha":721,"o":"m 46 287 b 352 -13 46 144 152 -13 b 660 300 563 -13 660 159 b 353 616 660 445 575 616 b 46 287 156 616 46 477 m 340 559 b 495 255 432 559 495 454 b 374 45 495 79 423 45 b 212 318 262 45 212 215 b 340 559 212 436 253 559 "},"5":{"x_min":69.875,"x_max":563.96875,"ha":643,"o":"m 410 237 b 271 39 410 109 340 39 b 210 89 249 39 227 57 b 133 139 196 116 174 139 b 69 85 94 139 69 114 b 276 -17 69 28 188 -17 b 563 264 446 -17 563 109 b 310 519 563 395 472 519 b 184 509 276 519 210 514 b 206 698 192 577 199 632 b 361 692 241 694 313 692 b 521 700 400 692 453 694 l 542 790 l 516 804 b 295 790 434 794 362 790 b 129 798 249 790 193 792 l 83 399 b 278 444 165 434 222 444 b 410 237 344 444 410 367 "},"õ":{"x_min":45.640625,"x_max":660.140625,"ha":721,"o":"m 45 287 b 352 -13 45 144 151 -13 b 660 300 563 -13 660 159 b 353 616 660 445 575 616 b 45 287 156 616 45 477 m 339 559 b 495 255 432 559 495 454 b 374 45 495 79 423 45 b 211 318 262 45 211 215 b 339 559 211 436 252 559 m 434 797 b 359 832 406 797 383 812 b 258 876 331 854 300 876 b 145 729 196 876 164 823 l 180 718 b 247 791 195 770 210 791 b 326 755 271 791 299 773 b 414 713 353 734 383 713 b 539 863 480 713 521 769 l 500 877 b 434 797 481 809 464 797 "},"�":{"x_min":29.9375,"x_max":1310.75,"ha":1367,"o":"m 593 -38 b 660 27 593 -2 623 27 b 726 -38 696 27 726 -2 b 660 -106 726 -76 696 -106 b 593 -38 623 -106 593 -76 m 549 700 b 559 663 549 679 553 670 b 568 629 564 655 568 647 b 510 577 568 597 540 577 b 451 641 487 577 451 593 b 692 823 451 723 536 823 b 921 611 835 823 921 737 b 766 379 921 518 860 447 b 680 218 737 358 680 316 l 680 156 b 660 140 680 147 671 140 b 642 156 650 140 642 147 l 642 220 b 732 444 642 280 643 361 b 813 605 786 495 813 540 b 680 777 813 688 758 777 b 549 700 605 777 549 740 m 29 408 l 672 -245 l 1310 405 l 668 1061 l 29 408 "},"7":{"x_min":87,"x_max":575.625,"ha":643,"o":"m 183 781 b 159 798 174 781 164 784 l 121 798 b 87 594 118 738 108 684 l 138 584 b 225 680 160 674 183 680 l 455 680 b 156 0 385 506 247 198 l 163 -17 l 288 -3 b 575 770 361 219 432 416 l 570 781 l 183 781 "},"K":{"x_min":29.9375,"x_max":895.609375,"ha":917,"o":"m 300 105 l 300 407 l 581 99 b 601 38 601 78 601 65 l 601 2 l 607 -3 b 714 0 607 -3 665 0 b 891 -3 766 0 891 -3 l 895 0 l 895 30 b 873 46 895 41 894 46 l 849 46 b 766 106 826 46 800 70 l 441 459 b 477 560 412 488 419 505 l 688 755 b 843 848 749 814 801 841 b 884 864 867 849 884 852 l 884 893 l 877 898 b 718 895 877 898 766 895 b 536 898 665 895 536 898 l 530 893 l 530 864 b 585 848 530 850 556 848 b 583 781 637 848 601 799 l 300 510 l 300 789 b 374 850 300 828 318 850 l 394 850 b 404 861 400 850 404 854 l 404 895 l 401 898 b 217 895 401 898 266 895 b 32 898 164 895 32 898 l 29 895 l 29 861 b 40 850 29 854 35 850 l 59 850 b 134 789 114 850 134 834 l 134 105 b 59 44 134 60 114 44 l 40 44 b 29 31 35 44 29 40 l 29 0 l 32 -3 b 217 0 32 -3 164 0 b 402 -3 266 0 402 -3 l 405 0 l 405 31 b 394 44 405 40 401 44 l 375 44 b 300 105 319 44 300 66 "},",":{"x_min":68.609375,"x_max":254.53125,"ha":339,"o":"m 168 141 b 83 69 117 141 83 109 b 141 1 83 23 107 8 b 187 -37 153 0 187 -6 b 73 -147 187 -65 142 -129 b 83 -190 65 -165 66 -180 b 254 -8 186 -172 254 -79 b 168 141 254 113 215 141 "},"d":{"x_min":50.359375,"x_max":694.171875,"ha":732,"o":"m 604 809 b 608 955 604 899 608 955 b 586 968 608 964 598 968 b 357 932 551 955 412 937 l 362 892 b 370 885 362 888 364 885 l 413 882 b 454 781 441 882 454 871 l 454 581 b 366 616 435 600 387 616 b 142 532 261 616 198 585 b 50 284 80 468 50 382 b 314 -14 50 111 170 -14 b 457 48 371 -14 405 2 l 454 -17 l 500 -17 b 694 38 545 6 604 28 l 691 81 b 604 159 619 88 604 117 l 604 809 m 454 475 l 454 116 b 348 55 405 68 375 55 b 206 307 270 55 206 132 b 347 557 206 509 291 557 b 454 475 389 557 424 521 "},"¨":{"x_min":65.328125,"x_max":458.6875,"ha":554,"o":"m 65 795 b 138 722 65 755 99 722 b 212 795 179 722 212 755 b 138 870 212 837 179 870 b 65 795 99 870 65 837 m 311 795 b 385 722 311 755 344 722 b 458 795 424 722 458 755 b 385 870 458 837 424 870 b 311 795 344 870 311 837 "},"Ô":{"x_min":50.359375,"x_max":944.609375,"ha":1014,"o":"m 944 456 b 494 913 944 733 735 913 b 50 431 235 913 50 703 b 495 -14 50 156 247 -14 b 944 456 770 -14 944 178 m 477 856 b 764 430 631 856 764 712 b 522 42 764 188 660 42 b 228 455 362 42 228 194 b 477 856 228 738 362 856 m 500 1117 l 442 1117 b 307 987 400 1070 357 1026 l 326 958 b 472 1044 378 981 421 1006 b 616 958 517 1009 563 983 l 638 987 b 500 1117 589 1024 541 1067 "},"E":{"x_min":32.046875,"x_max":737,"ha":781,"o":"m 36 0 l 700 0 b 737 234 709 75 723 161 l 678 248 b 531 63 655 145 606 63 l 323 63 b 304 104 311 63 304 72 l 304 448 l 458 448 b 505 350 492 448 497 406 b 527 336 505 344 513 336 l 556 336 l 564 348 b 554 477 561 372 554 427 b 564 606 554 529 561 584 l 556 620 l 527 620 b 505 605 513 620 505 611 b 458 506 497 550 492 506 l 304 506 l 304 793 b 323 833 304 822 311 833 l 500 833 b 644 659 591 833 625 730 l 699 672 b 670 897 685 743 675 816 l 36 897 l 32 894 l 32 862 b 42 851 32 855 37 851 l 62 851 b 136 790 116 851 136 834 l 136 106 b 62 45 136 62 116 45 l 42 45 b 32 33 37 45 32 41 l 32 2 l 36 0 "},"Y":{"x_min":0,"x_max":839.8125,"ha":857,"o":"m 345 100 b 272 46 345 61 328 46 l 235 46 b 225 33 228 46 225 42 l 225 1 l 227 -1 b 430 1 227 -1 381 1 b 631 -1 483 1 631 -1 l 634 1 l 634 33 b 623 46 634 42 628 46 l 586 46 b 511 100 533 46 511 57 l 511 406 l 714 796 b 797 850 737 841 756 850 l 826 850 b 839 861 834 850 839 853 l 839 895 l 837 898 b 691 895 837 898 703 895 b 567 898 675 895 567 898 l 564 895 l 564 860 b 573 850 564 856 566 850 b 631 799 622 850 646 827 l 457 463 l 268 799 b 323 850 240 845 254 850 b 333 861 330 850 333 856 l 333 895 l 330 898 b 175 895 330 898 183 895 b 2 898 157 895 2 898 l 0 895 l 0 860 b 14 850 0 853 6 850 l 31 850 b 132 767 68 850 85 846 l 345 390 l 345 100 "},"\"":{"x_min":85.75,"x_max":413.78125,"ha":508,"o":"m 328 584 l 363 593 b 413 844 363 593 413 823 b 352 895 413 869 409 895 b 264 820 294 895 264 852 b 307 590 264 812 307 590 l 328 584 m 149 584 l 185 593 b 235 844 185 593 235 823 b 174 895 235 869 231 895 b 85 820 115 895 85 852 b 129 590 85 812 129 590 l 149 584 "},"ê":{"x_min":46.328125,"x_max":586.765625,"ha":640,"o":"m 540 151 b 388 63 490 88 439 63 b 202 304 281 63 202 168 l 202 340 l 533 340 b 586 369 566 340 586 350 b 339 616 586 487 539 616 b 46 275 196 616 46 487 b 334 -13 46 122 128 -13 b 574 122 428 -13 524 18 l 540 151 m 209 395 b 337 558 228 537 309 558 b 430 411 374 558 430 522 b 427 395 430 402 430 398 l 209 395 m 368 901 l 298 901 b 153 715 257 834 202 772 l 187 688 b 332 804 242 725 280 750 b 477 688 379 752 419 725 l 511 715 b 368 901 461 772 409 833 "},"Ï":{"x_min":16.328125,"x_max":417.859375,"ha":443,"o":"m 272 1052 b 345 978 272 1010 304 978 b 417 1052 386 978 417 1010 b 345 1127 417 1093 386 1127 b 272 1052 304 1127 272 1093 m 16 1052 b 89 978 16 1010 49 978 b 161 1052 130 978 161 1010 b 89 1127 161 1093 130 1127 b 16 1052 49 1127 16 1093 m 300 105 l 300 789 b 375 850 300 828 319 850 l 394 850 b 405 861 401 850 405 854 l 405 895 l 402 898 b 217 895 402 898 266 895 b 32 898 164 895 32 898 l 29 895 l 29 861 b 40 850 29 854 35 850 l 59 850 b 134 789 114 850 134 834 l 134 105 b 59 44 134 60 114 44 l 40 44 b 29 31 35 44 29 40 l 29 0 l 32 -3 b 217 0 32 -3 164 0 b 402 -3 266 0 402 -3 l 405 0 l 405 31 b 394 44 405 40 401 44 l 375 44 b 300 105 319 44 300 66 "},"Â":{"x_min":2.71875,"x_max":948.703125,"ha":971,"o":"m 201 110 l 279 315 b 321 334 287 333 294 334 l 571 334 l 656 101 b 658 82 658 97 658 89 b 624 46 658 61 647 46 l 588 46 b 552 32 563 46 552 43 l 552 5 l 563 -1 b 759 1 563 -1 710 1 b 941 -1 811 1 941 -1 l 948 4 l 948 32 b 928 46 948 43 948 46 l 890 46 b 818 126 856 46 837 75 l 543 870 b 481 913 532 899 510 913 b 424 870 466 913 438 903 l 121 126 b 29 46 98 69 57 46 b 2 32 13 46 2 46 l 2 3 l 13 -1 b 129 1 13 -1 95 1 b 287 -1 161 1 287 -1 l 294 4 l 294 32 b 265 46 294 43 287 46 b 201 110 185 46 186 69 m 344 400 b 318 416 319 400 318 404 l 435 713 l 548 400 l 344 400 m 515 1117 l 457 1117 b 322 987 415 1070 372 1026 l 341 958 b 487 1044 393 981 436 1006 b 631 958 532 1009 578 983 l 653 987 b 515 1117 604 1024 556 1067 "},"Í":{"x_min":29.9375,"x_max":405.609375,"ha":443,"o":"m 300 105 l 300 789 b 375 850 300 828 319 850 l 394 850 b 405 861 401 850 405 854 l 405 895 l 402 898 b 217 895 402 898 266 895 b 32 898 164 895 32 898 l 29 895 l 29 861 b 40 850 29 854 35 850 l 59 850 b 134 789 114 850 134 834 l 134 105 b 59 44 134 60 114 44 l 40 44 b 29 31 35 44 29 40 l 29 0 l 32 -3 b 217 0 32 -3 164 0 b 402 -3 266 0 402 -3 l 405 0 l 405 31 b 394 44 405 40 401 44 l 375 44 b 300 105 319 44 300 66 m 285 1136 l 117 1017 b 96 988 99 1004 96 998 b 115 967 96 974 103 967 b 174 984 127 967 145 971 l 370 1064 l 285 1136 "},"´":{"x_min":131.171875,"x_max":368,"ha":474,"o":"m 255 980 l 142 798 b 131 765 133 786 131 773 b 152 745 131 756 142 745 b 204 768 166 745 185 751 l 368 918 l 354 950 b 276 983 343 963 317 983 b 255 980 270 983 259 981 "},"ì":{"x_min":32.671875,"x_max":375.671875,"ha":397,"o":"m 287 445 b 291 616 287 515 291 616 b 281 620 291 619 284 620 b 49 578 238 606 142 591 l 51 531 l 107 526 b 137 445 126 523 137 515 l 137 106 b 73 47 137 67 115 53 l 57 44 b 47 31 51 42 47 40 l 47 0 l 50 -3 b 209 0 50 -3 160 0 b 372 -3 262 0 372 -3 l 375 0 l 375 31 b 364 44 375 40 368 42 l 351 47 b 287 106 310 53 287 67 l 287 445 m 161 935 b 134 938 156 937 141 938 b 35 894 85 938 46 906 l 32 878 l 197 733 b 245 705 220 712 234 705 b 268 727 257 705 268 715 b 255 763 268 738 261 753 l 161 935 "},"±":{"x_min":83.03125,"x_max":649.25,"ha":732,"o":"m 634 111 l 96 111 l 96 8 l 634 8 l 634 111 m 416 491 l 416 719 l 315 719 l 315 491 l 83 491 l 83 388 l 315 388 l 315 162 l 416 162 l 416 388 l 649 388 l 649 491 l 416 491 "},"Ú":{"x_min":9.53125,"x_max":913.3125,"ha":942,"o":"m 709 790 l 709 385 b 483 42 709 235 683 42 b 344 110 432 42 383 72 b 281 374 281 176 281 283 l 281 790 b 355 851 281 828 299 851 l 374 851 b 385 862 381 851 385 855 l 385 895 l 382 897 b 198 895 382 897 246 895 b 12 897 144 895 12 897 l 9 895 l 9 862 b 21 851 9 855 14 851 l 40 851 b 114 790 93 851 114 834 l 114 328 b 454 -14 114 65 322 -14 b 808 409 755 -14 808 162 l 808 790 b 883 851 808 828 827 851 l 902 851 b 913 862 909 851 913 855 l 913 895 l 910 897 b 758 895 910 897 807 895 b 605 897 705 895 605 897 l 602 895 l 602 862 b 615 851 602 855 608 851 l 634 851 b 709 790 687 851 709 834 m 552 1137 l 383 1017 b 363 988 366 1005 363 998 b 382 967 363 974 370 967 b 441 984 394 967 412 972 l 637 1065 l 552 1137 "},"|":{"x_min":108.890625,"x_max":190.5625,"ha":306,"o":"m 190 -323 l 190 969 l 108 969 l 108 -323 l 190 -323 "},"§":{"x_min":40.90625,"x_max":594.96875,"ha":647,"o":"m 177 551 b 219 530 190 543 204 536 b 483 237 398 444 483 354 b 452 136 483 195 479 162 b 336 202 418 159 379 180 b 152 450 186 276 152 381 b 177 551 152 488 152 525 m 556 -36 b 480 113 556 25 528 72 l 486 115 b 594 304 540 159 594 223 b 332 606 594 475 484 530 b 228 727 269 637 228 662 b 337 865 228 800 260 865 b 435 797 408 865 435 822 b 420 741 435 779 420 777 b 488 681 420 729 439 681 b 551 740 514 681 551 708 b 332 913 551 838 465 913 b 87 700 202 913 87 791 b 148 570 87 636 113 597 b 40 383 95 526 40 461 b 246 115 40 273 95 201 b 407 -45 314 75 407 25 b 300 -186 407 -138 362 -186 b 198 -118 221 -186 198 -126 b 216 -62 198 -101 216 -93 b 144 -2 216 -50 192 -2 b 84 -59 119 -2 84 -29 b 303 -234 84 -161 204 -234 b 556 -36 490 -234 556 -131 "},"Ý":{"x_min":0,"x_max":839.8125,"ha":857,"o":"m 345 100 b 272 46 345 61 328 46 l 235 46 b 225 33 228 46 225 42 l 225 1 l 227 -1 b 430 1 227 -1 381 1 b 631 -1 483 1 631 -1 l 634 1 l 634 33 b 623 46 634 42 628 46 l 586 46 b 511 100 533 46 511 57 l 511 406 l 714 796 b 797 850 737 841 756 850 l 826 850 b 839 861 834 850 839 853 l 839 895 l 837 898 b 691 895 837 898 703 895 b 567 898 675 895 567 898 l 564 895 l 564 860 b 573 850 564 856 566 850 b 631 799 622 850 646 827 l 457 463 l 268 799 b 323 850 240 845 254 850 b 333 861 330 850 333 856 l 333 895 l 330 898 b 175 895 330 898 183 895 b 2 898 157 895 2 898 l 0 895 l 0 860 b 14 850 0 853 6 850 l 31 850 b 132 767 68 850 85 846 l 345 390 l 345 100 m 490 1138 l 321 1018 b 300 989 303 1006 300 999 b 319 968 300 975 307 968 b 378 985 332 968 349 973 l 574 1066 l 490 1138 "},"b":{"x_min":4.078125,"x_max":637,"ha":701,"o":"m 100 782 l 100 102 b 95 -9 100 50 99 23 l 141 -17 l 182 55 b 325 -13 215 16 265 -13 b 637 337 476 -13 637 115 b 389 616 637 508 522 616 b 250 558 337 616 289 587 l 250 809 b 254 955 250 900 254 955 b 232 969 254 965 245 969 b 4 933 197 955 58 937 l 8 893 b 16 886 8 889 10 886 l 59 883 b 100 782 87 883 100 872 m 250 77 l 250 502 b 355 546 295 532 322 546 b 480 305 421 546 480 441 b 318 43 480 151 426 43 b 250 77 294 43 273 51 "},"q":{"x_min":49,"x_max":694.171875,"ha":719,"o":"m 455 -215 b 392 -275 455 -254 435 -266 l 378 -277 b 367 -290 371 -279 367 -281 l 367 -322 l 370 -325 b 529 -322 370 -325 480 -322 b 691 -325 582 -322 691 -325 l 694 -322 l 694 -290 b 683 -277 694 -281 687 -279 l 672 -275 b 605 -215 630 -265 605 -254 l 605 445 b 608 605 605 493 608 605 b 594 620 608 616 598 620 b 502 556 564 620 540 602 b 351 616 475 580 424 616 b 49 288 170 616 49 473 b 332 -13 49 159 121 -13 b 455 11 379 -13 432 0 l 455 -215 m 455 484 l 455 84 b 378 56 426 66 394 56 b 202 318 310 56 202 113 b 347 558 202 456 258 558 b 455 484 385 558 420 540 "},"Ö":{"x_min":50.359375,"x_max":944.609375,"ha":1014,"o":"m 944 456 b 494 913 944 733 735 913 b 50 431 235 913 50 704 b 495 -13 50 156 247 -13 b 944 456 770 -13 944 179 m 477 856 b 764 430 631 856 764 712 b 522 43 764 188 660 43 b 228 455 362 43 228 194 b 477 856 228 738 362 856 m 748 943 b 822 868 748 901 781 868 b 894 943 862 868 894 901 b 822 1018 894 984 862 1018 b 748 943 781 1018 748 984 m 102 943 b 175 868 102 901 134 868 b 247 943 216 868 247 901 b 175 1018 247 984 216 1018 b 102 943 134 1018 102 984 "},"z":{"x_min":44.03125,"x_max":559,"ha":600,"o":"m 133 619 l 88 619 b 59 419 86 559 80 511 l 117 411 b 213 544 140 513 173 544 l 371 544 l 58 52 b 44 22 48 34 44 25 b 118 0 44 8 60 0 l 523 0 b 559 193 529 56 538 118 l 501 205 b 379 58 478 115 439 58 l 222 58 l 525 534 b 552 584 539 558 552 580 b 503 606 552 598 530 606 b 434 602 499 606 466 602 l 156 602 b 133 619 148 602 139 604 "},"ã":{"x_min":49.9375,"x_max":644.75,"ha":661,"o":"m 383 118 b 278 62 349 90 302 62 b 192 152 212 62 192 104 b 306 280 192 209 210 251 l 383 304 l 383 118 m 382 66 l 385 66 b 518 -13 401 12 436 -13 b 644 52 593 -13 644 45 b 627 80 644 62 632 80 b 584 58 618 80 617 58 b 530 175 531 58 530 111 l 530 376 b 307 616 530 576 419 616 b 66 461 208 616 66 544 b 130 402 66 425 81 402 b 200 455 168 402 200 436 b 192 515 200 472 192 487 b 288 563 192 545 237 563 b 383 357 345 563 383 533 l 286 327 b 49 132 144 284 49 241 b 212 -13 49 36 94 -13 b 382 66 269 -13 329 19 m 405 797 b 330 832 378 797 355 812 b 230 876 303 854 272 876 b 118 729 169 876 136 823 l 153 718 b 219 791 168 770 183 791 b 298 755 244 791 271 773 b 386 713 325 734 355 713 b 510 863 451 713 492 769 l 472 877 b 405 797 453 809 435 797 "},"æ":{"x_min":64.109375,"x_max":922.984375,"ha":993,"o":"m 313 616 b 79 470 215 616 79 553 b 147 398 79 434 99 398 b 220 455 208 398 220 435 b 211 515 220 471 211 487 b 296 565 211 545 246 565 b 409 351 360 565 409 496 b 64 123 182 331 64 248 b 275 -16 64 13 173 -16 b 479 96 359 -16 437 21 b 695 -16 532 28 584 -16 b 916 117 801 -16 876 42 l 861 151 b 713 60 814 92 770 60 b 552 301 630 60 554 160 b 922 474 804 306 922 356 b 698 616 922 546 865 616 b 501 533 619 617 541 587 b 313 616 453 605 381 616 m 392 142 b 295 52 367 70 337 52 b 205 153 246 52 205 96 b 409 290 205 216 280 273 b 392 142 408 224 398 163 m 688 553 b 781 470 736 553 781 524 b 555 360 781 395 701 370 b 688 553 567 470 618 553 "},"®":{"x_min":46.28125,"x_max":815.3125,"ha":879,"o":"m 431 763 b 759 425 612 763 759 611 b 431 86 759 238 612 86 b 102 425 247 86 102 240 b 431 763 102 609 249 763 m 431 31 b 815 425 643 31 815 208 b 431 816 815 641 643 816 b 46 425 219 816 46 641 b 431 31 46 209 217 31 m 491 516 b 392 429 491 430 434 429 l 392 588 b 430 593 398 591 415 593 b 491 516 476 593 491 563 m 575 516 b 446 620 575 558 548 620 b 265 613 345 620 294 618 l 265 595 b 279 587 265 590 269 587 l 300 588 b 306 573 304 588 306 580 l 306 270 b 295 259 306 261 303 259 l 279 259 b 264 251 269 259 264 256 l 264 231 l 340 234 b 432 231 359 234 432 231 l 432 251 b 417 259 432 256 428 259 l 401 259 b 392 269 392 259 392 262 l 392 395 b 428 391 398 395 423 394 l 494 283 b 586 230 510 247 547 230 b 617 236 593 230 604 231 l 617 254 b 563 297 596 254 581 266 l 498 411 b 575 516 498 411 575 444 "},"É":{"x_min":32.046875,"x_max":737,"ha":781,"o":"m 36 0 l 700 0 b 737 234 709 75 723 161 l 678 248 b 531 63 655 145 606 63 l 323 63 b 304 104 311 63 304 72 l 304 448 l 458 448 b 505 350 492 448 497 406 b 527 336 505 344 513 336 l 556 336 l 564 348 b 554 477 561 372 554 427 b 564 606 554 529 561 584 l 556 620 l 527 620 b 505 605 513 620 505 611 b 458 506 497 550 492 506 l 304 506 l 304 793 b 323 833 304 822 311 833 l 500 833 b 644 659 591 833 625 730 l 699 672 b 670 897 685 743 675 816 l 36 897 l 32 894 l 32 862 b 42 851 32 855 37 851 l 62 851 b 136 790 116 851 136 834 l 136 106 b 62 45 136 62 116 45 l 42 45 b 32 33 37 45 32 41 l 32 2 l 36 0 m 475 1138 l 307 1019 b 286 990 289 1006 286 1000 b 305 969 286 976 293 969 b 364 986 317 969 335 973 l 560 1066 l 475 1138 "},"~":{"x_min":35,"x_max":595,"ha":657,"o":"m 35 291 l 84 275 b 218 380 116 341 183 380 b 302 338 238 380 272 363 b 420 293 333 311 368 293 b 595 468 480 293 552 318 l 545 484 b 424 384 513 405 472 384 b 342 429 409 384 371 404 b 227 473 310 455 272 473 b 35 291 129 473 52 381 "},"³":{"x_min":48.984375,"x_max":406.078125,"ha":461,"o":"m 267 863 b 142 761 267 807 202 770 l 146 724 b 202 733 184 732 198 733 b 304 644 257 733 304 718 b 201 539 304 554 220 539 b 144 562 178 539 153 549 b 87 592 135 575 125 592 b 48 547 62 592 48 569 b 187 497 48 515 125 497 b 406 654 309 497 406 557 b 304 778 406 725 355 764 b 370 870 344 803 370 836 b 233 956 370 924 321 956 b 61 855 93 956 61 880 b 106 818 61 849 62 818 b 146 870 145 818 146 852 b 217 917 149 899 201 917 b 267 863 243 917 267 901 "},"₧":{"x_min":-1.0625,"x_max":1184.25,"ha":1236,"o":"m 105 92 b 68 44 105 62 95 44 l 37 44 b -1 28 12 44 -1 38 l -1 11 l 11 -2 b 186 1 11 -2 143 1 b 358 -2 233 1 358 -2 l 370 11 l 370 28 b 330 44 370 38 351 44 l 299 44 b 263 92 272 44 263 59 l 263 348 b 294 347 277 341 261 347 b 549 482 439 347 515 409 l 565 482 l 565 114 b 683 -13 565 23 608 -13 b 771 5 715 -13 745 -7 l 773 -8 b 831 2 812 0 827 2 b 849 0 835 2 840 2 b 966 -12 878 -8 918 -12 b 1184 146 1045 -12 1184 19 b 984 334 1184 243 1093 284 b 908 424 931 357 908 370 b 977 511 908 491 944 511 b 1086 365 996 511 1049 496 l 1172 366 l 1157 516 b 977 559 1127 532 1048 559 b 857 529 932 559 891 549 b 819 541 854 536 841 541 l 714 541 l 714 746 l 586 700 l 586 678 b 576 585 586 641 582 607 b 578 606 578 592 578 599 b 307 818 578 679 534 818 b 173 813 280 818 235 816 b -1 806 114 809 15 806 l -1 775 b 37 761 -1 770 0 761 b 54 763 39 761 47 761 b 81 764 64 763 75 764 b 105 714 90 764 105 757 l 105 92 m 771 405 b 931 246 771 317 828 288 b 1042 117 1016 209 1042 173 b 963 31 1042 59 996 31 b 889 66 932 31 901 55 b 852 187 864 91 854 155 l 764 185 b 769 84 766 153 767 116 l 784 88 b 726 66 758 73 741 66 b 714 173 717 66 714 99 l 714 482 l 799 482 b 771 405 781 459 771 432 m 263 754 l 243 750 b 299 764 264 757 286 764 b 425 582 360 764 425 735 b 287 399 425 455 375 399 b 263 401 277 399 269 399 l 263 754 "},"¡":{"x_min":46.28125,"x_max":242.28125,"ha":339,"o":"m 221 534 b 145 611 221 576 187 611 b 69 534 103 611 69 576 b 145 456 69 491 103 456 b 221 534 187 456 221 491 m 144 -316 b 242 -212 186 -316 242 -290 b 223 -69 242 -158 232 -118 b 185 261 205 27 186 194 b 144 336 183 308 179 336 b 106 277 111 336 106 304 b 65 -65 104 209 87 69 b 46 -212 57 -111 46 -163 b 144 -316 46 -283 93 -316 "},"[":{"x_min":119.78125,"x_max":466.859375,"ha":521,"o":"m 466 956 l 119 956 l 119 -275 l 466 -275 l 466 -204 l 269 -204 l 269 886 l 466 886 l 466 956 "},"L":{"x_min":30.046875,"x_max":697,"ha":747,"o":"m 136 789 l 136 99 b 95 43 136 56 128 43 l 51 43 b 30 27 35 43 30 36 l 30 0 l 35 -3 b 196 0 35 -3 141 0 l 664 0 b 697 239 667 77 682 164 l 643 250 b 465 63 622 166 573 63 l 348 63 b 302 127 319 63 302 85 l 302 789 b 375 850 302 828 319 850 l 396 850 b 405 861 401 850 405 854 l 405 895 l 403 898 b 219 895 403 898 266 895 b 32 898 166 895 32 898 l 30 895 l 30 861 b 42 850 30 854 35 850 l 61 850 b 136 789 114 850 136 834 "}," ":{"x_min":0,"x_max":0,"ha":347},"%":{"x_min":72.046875,"x_max":822.890625,"ha":885,"o":"m 166 544 b 273 734 166 624 207 734 b 327 656 298 734 327 724 b 211 458 327 576 273 458 b 166 544 186 458 166 490 m 496 720 b 350 755 471 720 423 720 b 258 784 336 772 297 784 b 72 563 147 784 72 681 b 196 412 72 470 111 412 b 385 658 314 412 385 541 b 381 687 385 669 384 676 b 482 658 407 672 451 658 b 629 690 523 658 576 667 l 130 -5 l 204 -21 l 764 761 l 700 790 b 496 720 644 729 553 720 m 511 126 b 641 -25 511 36 557 -25 b 822 221 749 -25 822 83 b 697 347 822 321 763 347 b 511 126 576 347 511 237 m 603 107 b 712 297 603 186 654 297 b 765 218 731 297 765 290 b 650 19 765 141 720 19 b 603 107 624 19 603 53 "},"P":{"x_min":29.9375,"x_max":725.46875,"ha":764,"o":"m 134 124 b 59 47 134 71 114 54 l 40 44 b 29 32 35 43 29 40 l 29 0 l 32 -2 b 217 0 83 0 166 0 b 416 -2 269 0 366 0 l 419 0 l 419 32 b 408 44 419 40 416 43 l 382 47 b 300 124 328 53 300 71 l 300 392 b 375 388 319 389 343 388 b 725 672 643 388 725 539 b 393 908 725 761 666 908 b 32 899 283 908 112 899 l 29 896 l 29 863 b 44 851 29 857 34 851 l 88 849 b 134 778 118 847 134 826 l 134 124 m 300 775 b 382 851 300 824 310 851 b 552 649 461 851 552 818 b 368 443 552 504 480 443 b 300 447 348 443 319 444 l 300 775 "},"À":{"x_min":2.71875,"x_max":948.703125,"ha":971,"o":"m 201 110 l 279 315 b 321 335 287 333 294 335 l 571 335 l 656 101 b 658 82 658 97 658 89 b 624 46 658 61 647 46 l 588 46 b 552 32 563 46 552 43 l 552 5 l 563 -1 b 759 1 563 -1 710 1 b 941 -1 811 1 941 -1 l 948 4 l 948 32 b 928 46 948 43 948 46 l 890 46 b 818 126 856 46 837 75 l 543 871 b 481 914 532 900 510 914 b 424 871 466 914 438 904 l 121 126 b 29 46 98 69 57 46 b 2 32 13 46 2 46 l 2 3 l 13 -1 b 129 1 13 -1 95 1 b 287 -1 161 1 287 -1 l 294 4 l 294 32 b 265 46 294 43 287 46 b 201 110 185 46 186 69 m 344 400 b 318 417 319 400 318 404 l 435 714 l 548 400 l 344 400 m 386 1136 l 283 1074 l 492 986 b 551 969 522 974 540 969 b 571 990 564 969 571 976 b 551 1019 571 1000 566 1008 l 386 1136 "},"_":{"x_min":6.8125,"x_max":656.0625,"ha":675,"o":"m 656 -143 l 6 -143 l 6 -213 l 656 -213 l 656 -143 "},"ñ":{"x_min":45.109375,"x_max":743,"ha":782,"o":"m 283 529 l 280 529 l 283 616 b 273 620 283 619 276 620 b 45 579 230 607 140 591 l 47 531 l 103 526 b 133 445 122 525 133 515 l 133 105 b 68 47 133 66 111 56 l 56 44 b 45 31 49 41 45 40 l 45 0 l 47 -3 b 205 0 47 -3 158 0 b 362 -3 258 0 362 -3 l 364 0 l 364 31 b 353 44 364 40 358 42 l 348 45 b 283 105 306 55 283 67 l 283 473 b 447 538 349 516 406 538 b 504 402 496 538 504 497 l 504 105 b 439 45 504 66 481 55 l 434 44 b 423 31 427 41 423 40 l 423 0 l 426 -3 b 578 0 426 -3 529 0 b 740 -3 631 0 740 -3 l 743 0 l 743 31 b 732 44 743 40 736 42 l 721 47 b 654 105 679 56 654 66 l 654 393 b 488 616 654 519 634 616 b 283 529 423 616 352 583 m 491 797 b 416 832 464 797 440 812 b 315 876 389 854 358 876 b 203 729 254 876 222 823 l 238 718 b 304 791 253 770 268 791 b 383 755 329 791 356 773 b 472 713 411 734 440 713 b 596 863 537 713 578 769 l 557 877 b 491 797 538 809 521 797 "},"+":{"x_min":83.03125,"x_max":649.25,"ha":746,"o":"m 416 373 l 416 601 l 315 601 l 315 373 l 83 373 l 83 270 l 315 270 l 315 44 l 416 44 l 416 270 l 649 270 l 649 373 l 416 373 "},"½":{"x_min":79.046875,"x_max":893,"ha":917,"o":"m 190 532 b 132 473 190 493 172 483 l 121 471 b 110 460 114 468 110 466 l 110 437 l 113 435 b 238 437 113 435 190 437 b 368 435 291 437 368 435 l 371 437 l 371 460 b 360 471 371 466 366 468 l 348 473 b 290 532 307 482 290 493 l 290 800 b 292 879 290 839 292 879 b 277 887 292 885 287 887 b 256 879 269 887 261 882 b 79 796 189 836 145 822 l 92 760 b 160 778 122 771 144 778 b 190 715 182 778 190 761 l 190 532 m 604 180 b 645 223 627 180 645 197 b 641 247 645 226 642 240 b 639 262 639 251 639 254 b 707 297 639 278 661 297 b 770 219 722 297 770 280 b 699 96 770 169 741 133 b 537 -115 574 -15 537 -47 l 872 -115 l 893 -5 l 849 4 b 829 -60 841 -30 837 -40 l 657 -60 b 795 89 661 -24 684 2 b 876 222 842 130 876 173 b 714 339 876 312 795 339 b 551 229 585 339 551 266 b 604 180 551 207 571 180 m 724 835 l 100 -74 l 156 -85 l 781 823 l 724 835 "},"Æ":{"x_min":1.796875,"x_max":1211,"ha":1264,"o":"m 701 1 l 1172 1 b 1211 236 1183 76 1195 162 l 1150 250 b 1003 65 1128 147 1078 65 l 795 65 b 776 105 783 65 776 74 l 776 450 l 931 450 b 977 351 964 450 969 408 b 999 337 977 346 985 337 l 1028 337 l 1036 350 b 1026 479 1033 374 1026 429 b 1036 608 1026 529 1033 586 l 1028 622 l 999 622 b 977 607 985 622 977 612 b 931 508 969 550 964 508 l 776 508 l 776 794 b 795 835 776 824 783 835 l 972 835 b 1116 661 1063 835 1097 732 l 1171 674 b 1142 897 1158 744 1147 818 l 702 897 l 401 897 l 399 896 l 399 861 b 410 851 399 855 401 851 b 480 780 472 851 506 832 l 128 97 b 46 46 102 49 84 46 l 15 46 b 1 35 7 46 1 42 l 1 1 l 4 -1 b 140 1 4 -1 93 1 b 295 -1 193 1 295 -1 l 298 1 l 298 37 b 290 46 298 40 295 46 b 223 94 244 46 201 54 l 367 369 l 610 369 l 610 107 b 536 46 610 68 592 46 l 499 46 b 489 32 493 46 489 40 l 489 1 l 491 -1 l 701 1 m 395 424 l 570 758 b 610 757 593 801 610 793 l 610 424 l 395 424 "},"₣":{"x_min":-0.21875,"x_max":615,"ha":608,"o":"m 443 504 l 286 504 l 286 695 b 307 732 286 725 295 732 l 401 732 b 521 557 466 732 500 659 l 615 570 l 586 798 l 203 798 b 13 801 186 798 13 801 l 0 787 l 0 766 b 39 750 0 756 17 750 l 80 750 b 119 695 112 750 119 738 l 119 504 l 3 504 l 3 441 l 119 441 l 119 386 l 3 386 l 3 322 l 119 322 l 119 104 b 76 49 119 65 107 49 l 40 49 b 0 32 18 49 0 43 l 0 11 l 13 -1 b 201 1 13 -1 149 1 b 394 -1 250 1 394 -1 l 406 11 l 406 32 b 367 49 406 43 393 49 l 331 49 b 286 104 299 49 286 69 l 286 322 l 443 322 l 443 386 l 286 386 l 286 441 l 443 441 l 443 504 "},"Ë":{"x_min":32.515625,"x_max":737,"ha":781,"o":"m 36 0 l 700 0 b 737 234 709 75 723 161 l 678 248 b 532 63 655 145 606 63 l 323 63 b 304 104 311 63 304 72 l 304 448 l 458 448 b 506 350 492 448 498 406 b 527 336 506 344 514 336 l 556 336 l 564 348 b 555 477 561 372 555 427 b 564 606 555 529 561 584 l 556 620 l 527 620 b 506 605 514 620 506 611 b 458 506 498 550 492 506 l 304 506 l 304 793 b 323 833 304 822 311 833 l 500 833 b 644 659 591 833 625 730 l 699 672 b 670 897 685 743 675 816 l 36 897 l 32 894 l 32 862 b 43 851 32 855 37 851 l 62 851 b 137 790 116 851 137 834 l 137 106 b 62 45 137 62 116 45 l 43 45 b 32 33 37 45 32 41 l 32 2 l 36 0 m 446 1037 b 519 963 446 995 478 963 b 591 1037 560 963 591 995 b 519 1112 591 1079 560 1112 b 446 1037 478 1112 446 1079 m 190 1037 b 263 963 190 995 223 963 b 336 1037 304 963 336 995 b 263 1112 336 1079 304 1112 b 190 1037 223 1112 190 1079 "},"'":{"x_min":69.421875,"x_max":219.140625,"ha":299,"o":"m 133 585 l 168 593 b 219 844 168 593 219 823 b 157 896 219 869 215 896 b 69 821 99 896 69 853 b 112 590 69 812 112 590 l 133 585 "},"ª":{"x_min":36.75,"x_max":378.390625,"ha":413,"o":"m 304 497 b 378 527 330 497 355 506 l 364 555 b 348 550 360 552 353 550 b 329 629 336 550 329 572 l 329 726 b 185 884 329 856 251 884 b 43 783 127 884 43 838 b 87 748 43 762 66 748 b 132 777 112 748 132 766 b 127 794 132 784 130 791 b 125 812 126 797 125 802 b 182 847 125 834 137 847 b 239 736 213 847 239 838 l 176 715 b 36 594 91 693 36 652 b 141 497 36 534 84 497 b 240 551 186 497 194 509 b 304 497 245 526 262 497 m 239 695 l 239 591 b 168 544 202 558 197 544 b 123 598 133 544 123 569 b 239 695 123 626 138 666 "},"ð":{"x_min":46.265625,"x_max":651.984375,"ha":711,"o":"m 352 47 b 202 315 275 47 202 161 b 351 559 202 416 238 559 b 461 502 390 559 431 536 b 490 312 476 447 490 376 b 352 47 490 93 404 47 m 46 290 b 330 -16 46 145 142 -16 b 651 331 496 -16 651 94 b 438 818 651 527 558 694 l 417 838 l 549 929 l 506 995 b 353 891 464 966 400 924 b 196 990 314 923 260 955 l 162 943 b 258 858 193 920 224 891 b 276 838 264 851 269 845 l 133 741 l 177 674 l 326 777 b 423 611 363 729 396 674 b 353 618 400 615 375 618 b 46 290 230 618 46 531 "},"T":{"x_min":11,"x_max":803,"ha":829,"o":"m 118 895 b 89 928 89 895 89 920 l 40 934 b 11 720 35 866 25 794 l 64 713 b 185 831 91 824 110 831 l 257 831 b 323 777 307 831 323 819 l 323 105 b 249 44 323 66 304 44 l 213 44 b 202 31 206 44 202 40 l 202 0 l 205 -3 b 393 0 205 -3 344 0 b 608 -3 446 0 608 -3 l 611 0 l 611 31 b 600 44 611 40 605 44 l 564 44 b 490 105 510 44 490 62 l 490 773 b 555 831 490 819 506 831 l 628 831 b 748 713 703 831 721 824 l 803 720 b 773 934 788 794 778 866 l 724 928 b 694 895 724 920 722 895 l 118 895 "},"Þ":{"x_min":29.9375,"x_max":751.328125,"ha":814,"o":"m 217 1 b 420 -1 270 1 420 -1 l 423 1 l 423 33 b 411 46 423 42 417 46 l 375 46 b 300 107 321 46 300 64 l 300 219 b 420 209 322 210 371 209 b 751 476 661 209 751 372 b 438 726 751 575 690 726 b 300 723 413 726 351 726 l 300 791 b 375 851 300 830 319 851 l 411 851 b 421 862 417 851 421 855 l 421 895 l 419 897 b 221 895 419 897 270 895 b 32 897 168 895 32 897 l 29 895 l 29 862 b 40 851 29 855 35 851 l 59 851 b 134 790 114 851 134 834 l 134 107 b 59 46 134 63 114 46 l 40 46 b 29 33 35 46 29 42 l 29 1 l 32 -1 b 217 1 32 -1 164 1 m 300 662 b 421 680 330 669 396 680 b 585 476 503 680 585 643 b 397 257 585 298 495 257 b 300 263 345 257 313 260 l 300 662 "},"j":{"x_min":-85.75,"x_max":298.078125,"ha":401,"o":"m 117 793 b 201 706 117 745 155 706 b 285 793 247 706 285 745 b 201 879 285 840 247 879 b 117 793 155 879 117 840 m 295 445 b 298 615 295 515 298 615 b 288 620 298 618 291 620 b 43 579 245 606 137 591 l 46 531 l 115 526 b 145 445 134 523 145 515 l 145 111 b 76 -258 145 0 166 -258 b -35 -168 38 -258 50 -168 b -85 -219 -59 -168 -85 -181 b 51 -316 -85 -280 -12 -316 b 295 97 246 -316 295 -136 l 295 445 "},"1":{"x_min":112.96875,"x_max":555.328125,"ha":643,"o":"m 409 802 b 352 780 397 802 378 794 b 112 659 284 742 209 705 l 137 604 b 253 648 197 633 236 648 b 273 579 266 648 273 644 l 273 106 b 209 47 273 67 251 48 l 140 44 b 130 31 134 42 130 40 l 130 0 l 133 -3 b 345 0 133 -3 296 0 b 552 -3 398 0 552 -3 l 555 0 l 555 31 b 544 44 555 40 548 42 l 487 47 b 423 106 445 48 423 67 l 423 627 b 427 780 423 697 427 780 b 409 802 427 797 419 802 "},"ä":{"x_min":49,"x_max":645.171875,"ha":661,"o":"m 383 118 b 277 62 349 90 302 62 b 191 152 212 62 191 104 b 306 280 191 209 209 251 l 383 304 l 383 118 m 382 66 l 385 66 b 518 -13 401 12 436 -13 b 645 52 593 -13 645 45 b 627 80 645 62 632 80 b 585 58 619 80 617 58 b 530 175 532 58 530 111 l 530 376 b 307 616 530 576 419 616 b 65 461 208 616 65 544 b 129 402 65 425 80 402 b 200 455 167 402 200 436 b 191 515 200 472 191 487 b 288 563 191 545 236 563 b 383 356 345 563 383 533 l 285 327 b 49 131 144 284 49 241 b 212 -13 49 36 93 -13 b 382 66 269 -13 329 19 m 110 793 b 183 719 110 752 144 719 b 257 793 224 719 257 752 b 183 868 257 834 224 868 b 110 793 144 868 110 834 m 356 793 b 430 719 356 752 389 719 b 503 793 469 719 503 752 b 430 868 503 834 469 868 b 356 793 389 868 356 834 "},"<":{"x_min":57.171875,"x_max":641.078125,"ha":711,"o":"m 208 333 l 641 494 l 641 580 l 57 363 l 57 302 l 641 86 l 641 172 l 208 333 "},"£":{"x_min":35.15625,"x_max":595.9375,"ha":643,"o":"m 217 125 l 213 125 b 319 380 261 162 315 233 l 427 380 b 488 405 453 380 488 387 l 488 431 b 448 445 488 440 473 445 l 321 445 l 321 538 b 409 733 321 652 349 733 b 468 702 438 733 451 720 b 518 675 482 687 499 675 b 578 736 553 675 578 700 b 470 798 578 787 500 798 b 277 729 401 798 329 777 b 174 472 213 666 174 597 l 174 445 l 141 445 b 81 413 95 445 81 426 l 81 394 b 116 380 81 384 86 380 l 174 380 l 174 369 b 95 87 174 150 125 109 b 35 9 61 68 35 41 b 78 -26 35 -6 58 -26 b 137 29 103 -26 137 -8 b 186 63 137 45 141 63 b 416 -16 263 63 318 -16 b 595 100 511 -16 571 31 l 553 119 b 439 59 521 73 477 59 b 217 125 353 59 364 125 "},"¹":{"x_min":80.3125,"x_max":372.9375,"ha":461,"o":"m 191 600 b 133 541 191 561 174 551 l 122 539 b 111 528 115 536 111 535 l 111 505 l 114 503 b 239 505 114 503 191 505 b 370 503 292 505 370 503 l 372 505 l 372 528 b 362 539 372 535 367 536 l 349 541 b 291 600 308 550 291 561 l 291 869 b 294 948 291 908 294 948 b 279 956 294 954 288 956 b 257 948 270 956 262 951 b 80 865 190 905 147 891 l 93 828 b 161 846 123 839 145 846 b 191 784 183 846 191 830 l 191 600 "},"t":{"x_min":27.21875,"x_max":430.109375,"ha":460,"o":"m 270 537 l 379 537 b 430 561 405 537 430 544 l 430 588 b 400 602 430 597 426 602 l 270 602 l 270 826 l 160 783 b 78 602 160 670 147 602 b 27 591 51 602 27 600 l 27 548 b 51 537 27 540 29 537 l 121 537 l 121 127 b 238 -13 121 26 170 -13 b 430 88 313 -13 379 20 l 398 120 b 306 86 357 87 333 86 b 270 187 288 86 270 95 l 270 537 "},"¬":{"x_min":32.671875,"x_max":730.921875,"ha":778,"o":"m 651 184 l 730 184 l 730 556 l 32 556 l 32 488 l 651 488 l 651 184 "},"ù":{"x_min":32.40625,"x_max":717.046875,"ha":764,"o":"m 628 159 l 628 491 b 631 605 628 546 631 605 b 549 602 631 605 578 602 b 398 605 512 602 398 605 l 393 602 l 393 560 l 398 557 l 440 555 b 478 488 465 555 478 532 l 478 106 b 341 55 428 61 371 55 b 267 196 312 55 267 80 l 267 491 b 269 605 267 542 269 605 b 190 602 269 605 209 602 b 39 605 146 602 39 605 l 32 602 l 32 560 l 36 557 l 78 555 b 118 488 109 552 118 530 l 118 177 b 307 -14 118 80 149 -14 b 482 48 357 -14 418 6 l 478 -17 l 525 -17 b 717 38 560 3 593 21 l 715 81 b 628 159 642 85 628 117 m 325 935 b 297 938 319 936 304 938 b 198 893 248 938 209 906 l 195 878 l 360 732 b 408 705 383 711 397 705 b 431 727 420 705 431 714 b 418 763 431 738 424 753 l 325 935 "},"W":{"x_min":0,"x_max":1331.171875,"ha":1386,"o":"m 424 -16 b 500 45 458 -16 488 5 l 651 513 b 657 527 653 520 656 527 b 665 509 660 527 661 522 l 813 53 b 902 -16 827 9 845 -16 b 980 60 940 -16 960 5 l 1212 777 b 1299 851 1231 834 1246 851 l 1314 851 b 1331 862 1316 851 1331 851 l 1331 895 l 1328 897 b 1214 895 1328 897 1257 895 b 1046 897 1156 895 1046 897 l 1042 894 l 1042 860 b 1053 851 1042 856 1048 851 b 1132 790 1118 851 1148 840 l 971 298 l 936 192 l 907 287 l 752 769 b 822 851 726 848 773 851 b 833 860 826 851 833 853 l 833 894 l 830 897 b 598 895 830 897 665 895 b 468 897 544 895 468 897 l 465 894 l 465 862 b 481 851 465 855 472 851 l 485 851 b 574 794 539 851 563 831 l 602 705 b 609 666 608 691 609 678 b 600 613 609 648 604 630 l 499 299 l 468 202 l 436 302 l 277 794 b 337 851 259 845 284 851 b 349 863 344 851 349 855 l 349 894 l 345 897 b 153 895 345 897 223 895 b 2 897 102 895 2 897 l 0 894 l 0 862 b 16 851 0 855 6 851 l 34 851 b 108 780 72 851 96 815 l 345 48 b 424 -16 360 6 379 -16 "},"ï":{"x_min":-8.171875,"x_max":385.1875,"ha":397,"o":"m 287 445 b 291 616 287 515 291 616 b 281 620 291 619 284 620 b 49 578 238 606 142 591 l 51 531 l 107 526 b 137 445 126 523 137 515 l 137 106 b 73 47 137 67 115 53 l 57 44 b 47 31 51 42 47 40 l 47 0 l 50 -3 b 209 0 50 -3 160 0 b 372 -3 262 0 372 -3 l 375 0 l 375 31 b 364 44 375 40 368 42 l 351 47 b 287 106 310 53 287 67 l 287 445 m -8 792 b 65 719 -8 752 25 719 b 138 792 106 719 138 752 b 65 867 138 834 106 867 b -8 792 25 867 -8 834 m 238 792 b 311 719 238 752 270 719 b 385 792 351 719 385 752 b 311 867 385 834 351 867 b 238 792 270 867 238 834 "},">":{"x_min":57.171875,"x_max":641.078125,"ha":711,"o":"m 488 330 l 57 169 l 57 83 l 641 298 l 641 359 l 57 577 l 57 491 l 488 330 "},"v":{"x_min":12.25,"x_max":700.96875,"ha":732,"o":"m 589 488 b 686 557 609 542 645 552 b 700 570 694 557 700 563 l 700 602 l 698 605 b 593 602 698 605 634 602 b 453 605 537 602 453 605 l 447 600 l 447 567 b 458 557 447 563 451 559 l 464 556 b 522 496 511 543 534 534 l 400 145 l 265 495 b 292 555 250 536 250 549 l 315 557 b 326 568 318 557 326 559 l 326 602 l 321 605 b 153 602 321 605 209 602 b 16 605 99 602 16 605 l 12 602 l 12 567 b 25 557 12 560 19 557 b 123 463 87 550 106 506 l 280 55 b 360 -17 302 0 323 -17 b 428 56 392 -17 406 0 l 589 488 "},"û":{"x_min":32.359375,"x_max":717.28125,"ha":764,"o":"m 628 159 l 628 491 b 631 605 628 546 631 605 b 549 602 631 605 578 602 b 398 605 513 602 398 605 l 393 602 l 393 560 l 398 557 l 440 555 b 479 488 465 555 479 532 l 479 106 b 341 55 428 61 371 55 b 267 196 312 55 267 80 l 267 491 b 269 605 267 542 269 605 b 190 602 269 605 209 602 b 39 605 146 602 39 605 l 32 602 l 32 560 l 36 557 l 78 555 b 118 488 109 552 118 530 l 118 177 b 307 -14 118 80 149 -14 b 483 48 357 -14 419 6 l 479 -17 l 525 -17 b 717 38 560 3 593 21 l 715 81 b 628 159 642 85 628 117 m 387 900 l 316 900 b 172 714 276 834 221 771 l 206 688 b 351 803 261 724 299 749 b 496 688 398 752 438 724 l 530 714 b 387 900 480 771 428 832 "},"Ò":{"x_min":50.359375,"x_max":944.609375,"ha":1014,"o":"m 944 456 b 494 913 944 733 735 913 b 50 431 235 913 50 704 b 495 -13 50 156 247 -13 b 944 456 770 -13 944 179 m 477 856 b 764 430 631 856 764 712 b 522 43 764 188 660 43 b 228 455 362 43 228 194 b 477 856 228 738 362 856 m 413 1137 l 310 1075 l 519 987 b 578 970 549 975 567 970 b 598 991 592 970 598 977 b 578 1020 598 1001 593 1009 l 413 1137 "},"&":{"x_min":52.625,"x_max":949.59375,"ha":1013,"o":"m 753 492 b 629 291 737 452 684 364 b 607 296 624 284 613 287 b 465 516 524 413 486 477 b 666 745 582 584 666 674 b 471 907 666 850 597 907 b 230 723 316 907 230 806 b 315 505 230 657 260 591 b 52 207 108 384 52 310 b 335 -14 52 49 173 -14 b 586 107 456 -14 524 38 b 754 -14 652 7 690 -14 b 930 118 816 -14 866 0 l 886 150 b 790 70 852 84 828 70 b 667 216 748 70 705 153 l 832 473 b 934 557 867 528 893 555 b 949 570 942 557 949 563 l 949 602 l 946 605 b 833 602 946 605 877 602 b 693 605 779 602 693 605 l 688 600 l 688 567 b 699 557 688 563 692 557 b 753 492 739 555 772 541 m 538 168 b 347 42 474 77 421 42 b 213 235 278 42 213 113 b 343 446 213 321 241 380 b 538 168 375 396 471 259 m 367 725 b 458 850 367 813 413 850 b 539 731 511 850 539 806 b 422 582 539 677 481 630 b 367 725 387 635 367 696 "},"Ð":{"x_min":23.140625,"x_max":926.921875,"ha":997,"o":"m 32 0 l 460 0 b 926 429 662 0 926 87 b 435 897 926 686 711 897 l 32 897 l 29 894 l 29 862 b 40 851 29 855 35 851 l 59 851 b 134 790 114 851 134 834 l 134 462 l 23 462 l 23 398 l 134 398 l 134 106 b 59 45 134 62 114 45 l 40 45 b 29 33 35 45 29 41 l 29 2 l 32 0 m 300 104 l 300 398 l 392 398 l 392 462 l 300 462 l 300 793 b 385 841 300 837 336 841 b 747 394 653 841 747 604 b 419 55 747 122 593 55 b 300 104 313 55 300 63 "},"I":{"x_min":29.9375,"x_max":405.609375,"ha":443,"o":"m 300 105 l 300 789 b 375 850 300 828 319 850 l 394 850 b 405 861 401 850 405 854 l 405 895 l 402 898 b 217 895 402 898 266 895 b 32 898 164 895 32 898 l 29 895 l 29 861 b 40 850 29 854 35 850 l 59 850 b 134 789 114 850 134 834 l 134 105 b 59 44 134 60 114 44 l 40 44 b 29 31 35 44 29 40 l 29 0 l 32 -3 b 217 0 32 -3 164 0 b 402 -3 266 0 402 -3 l 405 0 l 405 31 b 394 44 405 40 401 44 l 375 44 b 300 105 319 44 300 66 "},"G":{"x_min":39.140625,"x_max":963.328125,"ha":1010,"o":"m 883 318 b 944 377 883 355 888 377 l 952 377 b 963 390 959 377 963 381 l 963 422 l 960 425 b 783 422 960 425 832 422 b 598 425 730 422 598 425 l 595 422 l 595 390 b 606 377 595 381 601 377 l 625 377 b 723 318 680 377 723 361 l 723 102 b 549 47 677 63 608 47 b 216 454 330 47 216 244 b 519 857 216 691 354 857 b 795 607 692 857 757 737 l 849 618 b 819 852 835 694 823 772 b 520 913 749 852 704 913 b 39 427 278 913 39 733 b 525 -13 39 186 235 -13 b 899 118 696 -13 804 36 b 883 158 888 127 883 137 l 883 318 "},"`":{"x_min":140,"x_max":375.46875,"ha":544,"o":"m 269 975 b 242 977 263 976 248 977 b 142 933 193 977 153 945 l 140 918 l 304 772 b 352 744 327 751 341 744 b 375 766 364 744 375 754 b 363 802 375 777 368 793 l 269 975 "},"·":{"x_min":112.96875,"x_max":298.078125,"ha":418,"o":"m 205 265 b 298 358 257 265 298 308 b 205 452 298 411 251 452 b 112 358 155 452 112 406 b 205 265 112 309 149 265 "},"r":{"x_min":43.5625,"x_max":534.921875,"ha":557,"o":"m 281 528 l 279 528 l 281 616 b 272 620 281 619 274 620 b 43 578 228 606 138 591 l 46 531 l 102 526 b 132 445 121 524 132 515 l 132 106 b 66 47 132 69 108 55 l 53 44 b 43 31 47 42 43 40 l 43 0 l 46 -3 b 204 0 46 -3 155 0 b 366 -3 257 0 366 -3 l 368 0 l 368 31 b 357 44 368 40 362 42 l 347 47 b 281 106 304 56 281 67 l 281 399 b 317 497 281 448 296 481 b 366 515 333 508 344 515 b 466 459 390 515 412 459 b 534 538 506 459 534 494 b 455 616 534 574 504 616 b 281 528 408 616 349 599 "},"₤":{"x_min":-3,"x_max":603.921875,"ha":608,"o":"m 305 316 l 469 316 l 469 380 l 309 380 l 309 433 l 469 433 l 469 498 l 309 498 l 309 538 b 391 731 309 647 348 731 b 435 702 402 731 420 718 b 500 677 450 690 465 677 b 583 734 548 677 583 698 b 451 800 583 784 489 800 b 260 727 369 800 305 775 b 153 498 191 656 157 591 l 29 498 l 29 433 l 152 433 l 152 380 l 29 380 l 29 316 l 150 316 b 90 115 148 237 133 161 b 71 94 78 101 73 94 l 78 94 b -3 15 32 72 -3 43 b 60 -23 -3 -4 28 -23 b 143 31 96 -23 143 -6 b 171 63 143 44 150 63 b 256 27 194 63 224 45 b 398 -16 294 5 337 -16 b 603 101 511 -16 579 33 l 563 143 b 421 62 514 76 451 62 b 360 88 399 62 382 73 b 218 126 333 105 299 125 b 305 316 263 163 294 220 "},"¿":{"x_min":6.8125,"x_max":517.21875,"ha":597,"o":"m 367 534 b 291 611 367 576 333 611 b 215 534 249 611 215 576 b 291 456 215 491 249 456 b 367 534 333 456 367 491 m 379 -195 b 272 -268 379 -234 332 -268 b 163 -115 194 -268 163 -195 b 238 50 163 -45 190 6 b 337 276 334 140 337 219 l 337 311 b 291 358 337 341 333 358 b 243 311 249 358 243 341 l 243 279 b 160 113 243 179 198 141 b 6 -105 92 62 6 -2 b 258 -318 6 -233 103 -318 b 445 -263 341 -318 402 -298 b 517 -144 490 -225 517 -193 b 439 -63 517 -91 472 -63 b 367 -120 398 -63 367 -86 b 379 -195 367 -158 379 -166 "},"ý":{"x_min":13.609375,"x_max":705.0625,"ha":740,"o":"m 588 473 b 690 557 611 531 650 557 b 705 570 698 557 705 563 l 705 602 l 702 605 b 615 602 702 605 649 602 b 462 605 555 602 462 605 l 457 600 l 457 567 b 468 557 457 563 461 557 b 522 492 510 557 539 542 b 397 145 498 411 443 260 l 270 495 b 321 557 255 538 266 557 b 332 568 323 557 332 559 l 332 602 l 326 605 b 161 602 326 605 225 602 b 17 605 104 602 17 605 l 13 602 l 13 567 b 27 557 13 560 19 557 b 125 466 81 557 96 534 l 317 -17 l 292 -85 b 208 -232 253 -192 217 -232 b 181 -208 197 -232 190 -222 b 125 -176 172 -196 147 -176 b 44 -247 85 -176 44 -200 b 148 -324 44 -306 118 -324 b 362 -99 257 -324 315 -215 l 588 473 m 445 935 l 332 753 b 321 720 323 741 321 728 b 343 700 321 711 332 700 b 394 723 356 700 375 706 l 558 873 l 544 905 b 466 938 533 918 507 938 b 445 935 460 938 449 936 "},"x":{"x_min":20.421875,"x_max":687.359375,"ha":724,"o":"m 249 101 l 306 184 b 359 188 336 227 337 227 l 416 99 b 385 44 442 58 431 51 b 374 33 382 42 374 41 l 374 0 l 379 -3 b 545 0 379 -3 480 0 b 683 -3 598 0 683 -3 l 687 0 l 687 34 b 673 44 687 40 679 42 b 547 137 623 51 590 70 l 427 319 b 424 339 419 331 420 334 l 545 489 b 668 557 582 536 626 552 b 683 570 676 557 683 563 l 683 602 l 680 605 b 588 602 680 605 623 602 b 428 605 525 602 428 605 l 424 600 l 424 567 b 434 557 424 563 427 557 b 457 498 483 553 485 538 l 389 398 b 368 402 381 388 379 386 l 303 499 b 333 557 272 545 281 552 b 344 568 337 557 344 559 l 344 602 l 340 605 b 170 602 340 605 235 602 b 32 605 115 602 32 605 l 28 602 l 28 567 b 42 557 28 560 35 557 b 166 464 89 557 127 520 l 287 288 b 283 267 292 281 294 280 l 157 109 b 35 44 122 66 74 49 b 20 30 27 42 20 37 l 20 0 l 23 -3 b 129 0 23 -3 87 0 b 277 -3 186 0 277 -3 l 283 0 l 283 33 b 272 44 283 38 277 42 b 249 101 246 48 217 55 "},"è":{"x_min":46.421875,"x_max":586.78125,"ha":640,"o":"m 540 151 b 388 63 490 88 439 63 b 202 304 281 63 202 168 l 202 340 l 533 340 b 586 369 566 340 586 350 b 339 616 586 487 539 616 b 46 275 196 616 46 487 b 334 -13 46 122 128 -13 b 574 122 428 -13 524 18 l 540 151 m 209 395 b 337 558 228 537 309 558 b 430 411 374 558 430 522 b 427 395 430 402 430 398 l 209 395 m 313 936 b 285 938 307 937 292 938 b 186 894 236 938 197 906 l 183 879 l 348 733 b 396 705 371 712 385 705 b 419 727 408 705 419 715 b 407 763 419 738 412 754 l 313 936 "},"º":{"x_min":53.078125,"x_max":423.3125,"ha":485,"o":"m 232 744 b 341 583 298 744 341 688 b 247 465 341 486 284 465 b 136 609 170 465 136 543 b 232 744 136 681 167 744 m 53 595 b 234 420 53 495 133 420 b 423 604 362 420 423 509 b 240 786 423 697 374 786 b 53 595 123 786 53 713 "},"Ø":{"x_min":49.796875,"x_max":944.875,"ha":1014,"o":"m 715 686 b 765 430 745 619 765 534 b 522 43 765 188 660 43 b 301 168 435 43 356 86 l 715 686 m 477 855 b 680 745 555 855 627 819 l 269 230 b 228 454 243 291 228 366 b 477 855 228 737 361 855 m 119 -63 l 222 68 b 495 -15 297 13 391 -15 b 944 455 770 -15 944 177 b 801 794 944 598 889 715 l 878 888 l 827 929 l 751 834 b 493 912 677 884 587 912 b 49 430 235 912 49 702 b 173 109 49 297 96 187 l 70 -20 l 119 -63 "},"÷":{"x_min":96.640625,"x_max":634.28125,"ha":746,"o":"m 634 373 l 96 373 l 96 270 l 634 270 l 634 373 m 300 137 b 364 73 300 102 329 73 b 428 137 400 73 428 102 b 364 202 428 173 400 202 b 300 137 329 202 300 173 m 300 509 b 364 445 300 475 329 445 b 428 509 400 445 428 475 b 364 575 428 545 400 575 b 300 509 329 575 300 545 "},"h":{"x_min":19.0625,"x_max":729.5625,"ha":764,"o":"m 637 106 l 637 394 b 476 617 637 540 593 617 b 265 528 426 617 340 585 l 265 809 b 269 955 265 899 269 955 b 247 969 269 965 259 969 b 19 933 212 955 73 937 l 23 892 b 31 885 23 888 25 885 l 74 883 b 115 781 102 883 115 872 l 115 106 b 50 47 115 67 92 53 l 34 44 b 23 31 27 42 23 40 l 23 0 l 25 -3 b 187 0 25 -3 140 0 b 349 -3 240 0 349 -3 l 352 0 l 352 31 b 341 44 352 40 345 42 l 332 47 b 265 106 288 59 265 67 l 265 473 b 419 541 328 519 394 541 b 487 409 473 541 487 517 l 487 106 b 421 47 487 67 462 58 l 412 44 b 401 31 405 42 401 40 l 401 0 l 404 -3 b 559 0 404 -3 511 0 b 726 -3 612 0 726 -3 l 729 0 l 729 31 b 718 44 729 40 722 42 l 703 47 b 637 106 658 53 637 67 "},".":{"x_min":89.828125,"x_max":242.28125,"ha":339,"o":"m 89 62 b 166 -13 89 20 123 -13 b 242 62 208 -13 242 20 b 166 140 242 105 208 140 b 89 62 123 140 89 105 "},"₱":{"x_min":1.5,"x_max":613.296875,"ha":608,"o":"m 613 667 l 557 667 b 296 819 537 738 470 819 b 162 813 269 819 224 816 b 109 809 145 812 125 810 b 1 806 72 808 13 806 l 1 776 b 39 762 1 770 4 762 b 54 763 43 762 49 762 b 70 765 58 763 66 765 b 95 715 80 765 95 758 l 95 667 l 11 667 l 11 603 l 95 603 l 95 549 l 11 549 l 11 485 l 95 485 l 95 93 b 58 44 95 62 85 44 l 39 44 b 1 29 15 44 1 39 l 1 11 l 13 -1 b 175 1 13 -1 132 1 b 347 -1 223 1 347 -1 l 360 11 l 360 29 b 319 44 360 39 340 44 l 288 44 b 252 93 262 44 252 60 l 252 348 b 283 347 266 341 252 347 b 539 485 429 347 507 412 l 613 485 l 613 549 l 561 549 b 567 603 565 569 567 585 l 613 603 l 613 667 m 252 755 l 232 751 b 288 765 253 759 276 765 b 405 667 334 765 383 747 l 252 667 l 252 755 m 400 485 b 277 399 376 427 334 399 b 252 401 268 399 260 399 l 252 485 l 400 485 m 414 603 l 414 597 l 414 583 b 413 549 414 573 414 559 l 252 549 l 252 603 l 414 603 "},";":{"x_min":69.96875,"x_max":255.890625,"ha":304,"o":"m 170 141 b 84 69 118 141 84 110 b 142 1 84 23 108 8 b 189 -37 155 0 189 -6 b 74 -146 189 -65 144 -128 b 84 -190 66 -165 68 -180 b 255 -8 187 -171 255 -78 b 170 141 255 114 216 141 m 87 496 b 163 419 87 454 121 419 b 239 496 205 419 239 454 b 163 573 239 539 205 573 b 87 496 121 573 87 539 "},"f":{"x_min":35.390625,"x_max":578.46875,"ha":467,"o":"m 134 103 b 69 47 134 65 114 53 l 50 44 b 39 31 43 42 39 40 l 39 0 l 42 -3 b 206 0 42 -3 157 0 b 390 -3 259 0 390 -3 l 393 0 l 393 31 b 382 44 393 40 387 42 l 357 47 b 284 108 314 51 284 69 l 284 537 l 394 537 b 442 560 419 537 442 544 l 442 588 b 415 602 442 597 441 602 l 284 602 l 284 673 b 363 910 284 880 333 910 b 432 852 386 910 409 897 b 515 797 450 820 473 797 b 578 866 555 797 578 831 b 389 969 578 890 533 969 b 134 616 261 969 134 845 l 134 602 l 95 602 b 35 570 49 602 35 581 l 35 551 b 72 537 35 541 40 537 l 134 537 l 134 103 "},"A":{"x_min":2.71875,"x_max":948.703125,"ha":971,"o":"m 201 110 l 279 315 b 321 335 287 333 294 335 l 571 335 l 656 101 b 658 82 658 97 658 89 b 624 46 658 61 647 46 l 588 46 b 552 32 563 46 552 43 l 552 5 l 563 -1 b 759 1 563 -1 710 1 b 941 -1 811 1 941 -1 l 948 4 l 948 32 b 928 46 948 43 948 46 l 890 46 b 818 126 856 46 837 75 l 543 871 b 481 914 532 900 510 914 b 424 871 466 914 438 904 l 121 126 b 29 46 98 69 57 46 b 2 32 13 46 2 46 l 2 3 l 13 -1 b 129 1 13 -1 95 1 b 287 -1 161 1 287 -1 l 294 4 l 294 32 b 265 46 294 43 287 46 b 201 110 185 46 186 69 m 344 400 b 318 417 319 400 318 404 l 435 714 l 548 400 l 344 400 "},"6":{"x_min":53.3125,"x_max":590.953125,"ha":643,"o":"m 559 762 l 554 805 b 194 667 388 795 283 758 b 53 319 96 566 53 444 b 330 -16 53 41 219 -16 b 590 238 539 -16 590 142 b 336 474 590 302 562 474 b 218 447 299 474 254 463 b 321 660 237 538 275 613 b 559 762 414 752 495 758 m 205 367 b 310 419 253 416 290 419 b 441 228 415 419 441 291 b 343 33 441 88 390 33 b 204 315 287 33 204 88 b 205 367 204 328 204 353 "},"O":{"x_min":50.359375,"x_max":944.609375,"ha":1014,"o":"m 944 456 b 494 913 944 733 735 913 b 50 431 235 913 50 704 b 495 -13 50 156 247 -13 b 944 456 770 -13 944 179 m 477 856 b 764 430 631 856 764 712 b 522 43 764 188 660 43 b 228 455 362 43 228 194 b 477 856 228 738 362 856 "},"n":{"x_min":44.921875,"x_max":743.171875,"ha":782,"o":"m 283 528 l 280 528 l 283 616 b 273 620 283 619 276 620 b 44 578 230 606 140 591 l 47 531 l 103 526 b 133 445 122 524 133 515 l 133 105 b 68 47 133 66 111 56 l 55 44 b 44 31 49 41 44 40 l 44 0 l 47 -3 b 205 0 47 -3 157 0 b 362 -3 258 0 362 -3 l 364 0 l 364 31 b 353 44 364 40 357 42 l 348 45 b 283 105 306 55 283 67 l 283 473 b 447 538 349 516 406 538 b 504 402 496 538 504 497 l 504 105 b 439 45 504 66 481 55 l 434 44 b 423 31 427 41 423 40 l 423 0 l 426 -3 b 578 0 426 -3 529 0 b 740 -3 631 0 740 -3 l 743 0 l 743 31 b 732 44 743 40 736 42 l 721 47 b 654 105 679 56 654 66 l 654 392 b 488 616 654 519 634 616 b 283 528 423 616 352 583 "},"3":{"x_min":57.078125,"x_max":576.140625,"ha":643,"o":"m 311 749 b 391 637 350 749 391 712 b 200 453 391 574 303 471 l 208 401 b 277 413 243 409 268 413 b 420 249 337 413 420 392 b 280 38 420 80 315 38 b 193 89 236 38 206 67 b 126 124 181 109 167 124 b 57 76 87 124 57 98 b 262 -14 57 20 174 -14 b 576 267 431 -14 576 82 b 400 478 576 398 482 457 b 532 657 524 562 532 626 b 337 802 532 714 490 802 b 72 627 126 802 72 671 b 129 578 72 623 73 578 b 200 651 183 578 200 624 b 311 749 200 731 284 749 "},"9":{"x_min":45.046875,"x_max":582.6875,"ha":643,"o":"m 76 23 l 81 -19 b 441 118 247 -9 352 27 b 582 466 539 219 582 341 b 305 802 582 744 416 802 b 45 547 96 802 45 643 b 299 311 45 483 73 311 b 418 339 336 311 381 322 b 314 125 398 247 360 172 b 76 23 222 33 140 27 m 430 418 b 325 366 382 369 345 366 b 194 557 220 366 194 494 b 292 752 194 697 245 752 b 431 470 348 752 431 697 b 430 418 431 457 431 432 "},"l":{"x_min":32.671875,"x_max":371.578125,"ha":401,"o":"m 129 781 l 129 106 b 63 47 129 67 106 53 l 47 44 b 36 31 40 42 36 40 l 36 0 l 39 -3 b 201 0 39 -3 153 0 b 368 -3 254 0 368 -3 l 371 0 l 371 31 b 360 44 371 40 364 42 l 345 47 b 279 106 300 53 279 67 l 279 809 b 283 955 279 899 283 955 b 261 969 283 965 273 969 b 32 933 225 955 87 937 l 36 892 b 44 885 36 888 39 885 l 88 883 b 129 781 115 883 129 872 "},"¤":{"x_min":31.25,"x_max":598.828125,"ha":643,"o":"m 313 168 b 453 206 366 168 412 182 l 522 125 l 596 206 l 525 267 b 581 414 560 316 581 364 b 523 563 581 467 562 516 l 598 626 l 519 710 b 450 626 504 691 472 652 b 315 662 411 648 370 662 b 176 627 262 662 217 649 l 108 703 l 33 624 b 104 567 54 606 82 584 b 44 414 65 519 44 469 b 103 264 44 361 65 313 l 31 204 l 114 122 l 176 203 b 313 168 216 181 261 168 m 155 416 b 315 585 155 512 227 585 b 470 414 394 585 470 514 b 313 245 470 320 404 245 b 155 416 223 245 155 318 "},"4":{"x_min":45.234375,"x_max":601.921875,"ha":643,"o":"m 346 108 b 310 50 346 72 332 50 l 258 50 b 220 34 223 50 220 41 l 220 1 l 222 -1 b 414 1 283 0 351 1 l 599 -1 l 601 1 l 601 33 b 576 50 601 45 593 50 l 520 50 b 488 108 501 50 488 62 l 488 211 l 596 211 l 582 272 l 488 272 l 488 566 l 429 566 l 346 444 l 346 272 l 159 272 b 414 795 260 408 355 573 b 366 805 396 804 370 805 b 329 794 343 805 332 802 b 52 290 290 676 188 436 b 45 279 47 286 45 283 b 60 243 45 273 53 256 l 76 219 b 113 211 81 212 86 211 l 346 211 l 346 108 "},"p":{"x_min":27.21875,"x_max":664.21875,"ha":726,"o":"m 265 528 l 262 528 l 265 616 b 255 620 265 619 258 620 b 27 578 212 606 122 591 l 29 531 l 85 526 b 115 445 104 524 115 515 l 115 -213 b 50 -275 115 -252 95 -265 l 38 -277 b 27 -288 31 -280 27 -281 l 27 -322 l 29 -325 b 187 -322 29 -325 138 -322 b 351 -325 240 -322 351 -325 l 352 -322 l 352 -288 b 341 -277 352 -281 347 -280 l 330 -275 b 265 -213 287 -265 265 -252 l 265 9 b 356 -14 294 -5 323 -14 b 559 65 439 -14 506 10 b 664 328 626 133 664 220 b 430 616 664 476 578 616 b 265 528 370 616 308 580 m 265 473 b 386 544 304 517 353 544 b 507 291 466 544 507 453 b 348 44 507 174 466 44 b 265 90 333 44 299 52 l 265 473 "},"à":{"x_min":49.078125,"x_max":645.234375,"ha":661,"o":"m 383 118 b 277 62 349 90 302 62 b 191 152 212 62 191 104 b 306 280 191 209 209 251 l 383 304 l 383 118 m 382 66 l 385 66 b 518 -13 401 12 436 -13 b 645 52 593 -13 645 45 b 627 80 645 62 632 80 b 585 58 619 80 618 58 b 530 175 532 58 530 111 l 530 376 b 307 616 530 576 419 616 b 65 461 208 616 65 544 b 129 402 65 425 80 402 b 200 455 167 402 200 436 b 191 515 200 472 191 487 b 288 563 191 545 236 563 b 383 356 345 563 383 533 l 285 327 b 49 131 144 284 49 241 b 212 -13 49 36 94 -13 b 382 66 269 -13 329 19 m 294 936 b 266 938 288 937 273 938 b 167 894 217 938 178 906 l 164 879 l 329 733 b 377 705 352 712 366 705 b 400 727 389 705 400 715 b 387 763 400 738 393 754 l 294 936 "},"Ü":{"x_min":9.53125,"x_max":913.3125,"ha":942,"o":"m 510 942 b 583 867 510 900 543 867 b 656 942 624 867 656 900 b 583 1017 656 984 624 1017 b 510 942 543 1017 510 984 m 319 942 b 393 867 319 900 352 867 b 465 942 434 867 465 900 b 393 1017 465 984 434 1017 b 319 942 352 1017 319 984 m 281 789 b 292 850 281 845 285 850 b 296 871 296 850 296 860 l 296 895 l 294 898 b 198 895 294 898 246 895 b 12 898 144 895 12 898 l 9 895 l 9 861 b 21 850 9 854 14 850 l 40 850 b 114 789 93 850 114 835 l 114 325 b 454 -17 114 61 322 -17 b 808 406 755 -17 808 159 l 808 789 b 883 850 808 831 827 850 l 902 850 b 913 861 909 850 913 854 l 913 895 l 910 898 b 758 895 910 898 807 895 b 677 898 705 895 677 898 l 675 895 l 675 868 b 681 850 675 860 675 850 b 709 789 692 850 709 832 l 709 382 b 483 39 709 232 683 39 b 344 107 432 39 383 68 b 281 371 280 174 281 288 l 281 789 "},"ó":{"x_min":45.828125,"x_max":659.6875,"ha":721,"o":"m 45 287 b 352 -13 45 144 152 -13 b 659 300 563 -13 659 159 b 353 616 659 445 575 616 b 45 287 156 616 45 477 m 339 559 b 495 255 432 559 495 454 b 373 45 495 79 422 45 b 211 318 262 45 211 215 b 339 559 211 436 252 559 m 383 936 l 270 754 b 259 720 262 741 259 729 b 281 701 259 712 270 701 b 333 723 294 701 313 706 l 496 873 l 482 905 b 405 938 471 919 446 938 b 383 936 398 938 387 937 "}}}
